<svg width="24" height="24" viewBox="0 0 24 24" fill="none" xmlns="http://www.w3.org/2000/svg">
<path fill-rule="evenodd" clip-rule="evenodd" d="M10.0575 17.7345C9.89872 17.8706 9.70429 17.9583 9.49721 17.9874C9.29014 18.0165 9.07907 17.9857 8.88896 17.8986C8.69885 17.8115 8.53765 17.6718 8.42442 17.496C8.31119 17.3202 8.25066 17.1156 8.25 16.9065V7.09353C8.25066 6.88442 8.31119 6.67988 8.42442 6.50408C8.53765 6.32828 8.69885 6.18858 8.88896 6.10149C9.07907 6.0144 9.29014 5.98357 9.49721 6.01264C9.70429 6.04171 9.89872 6.12946 10.0575 6.26553L15.321 10.8C15.4843 10.9408 15.6152 11.1151 15.7051 11.311C15.7949 11.507 15.8414 11.72 15.8415 11.9355V12.0615C15.8414 12.2771 15.7949 12.4901 15.7051 12.686C15.6152 12.882 15.4843 13.0563 15.321 13.197L10.0575 17.7345Z" fill="#5C6771"/>
</svg>
