<svg width="24" height="24" viewBox="0 0 24 24" fill="none" xmlns="http://www.w3.org/2000/svg">
<circle cx="12" cy="12" r="11.5" fill="#24262B" stroke="#F24E1E"/>
<path d="M16.0951 13.0299L15.5301 12.0899C15.4051 11.8849 15.2951 11.4899 15.2951 11.2499V10.3149C15.2951 8.4999 13.8201 7.0249 12.0101 7.0249C10.1951 7.0299 8.7201 8.4999 8.7201 10.3149V11.2449C8.7201 11.4849 8.6101 11.8799 8.4901 12.0849L7.9251 13.0249C7.7101 13.3899 7.6601 13.8049 7.7951 14.1649C7.9301 14.5299 8.2351 14.8199 8.6351 14.9499C9.1751 15.1299 9.7201 15.2599 10.2751 15.3549C10.3301 15.3649 10.3851 15.3699 10.4401 15.3799C10.5101 15.3899 10.5851 15.3999 10.6601 15.4099C10.7901 15.4299 10.9201 15.4449 11.0551 15.4549C11.3701 15.4849 11.6901 15.4999 12.0101 15.4999C12.3251 15.4999 12.6401 15.4849 12.9501 15.4549C13.0651 15.4449 13.1801 15.4349 13.2901 15.4199C13.3801 15.4099 13.4701 15.3999 13.5601 15.3849C13.6151 15.3799 13.6701 15.3699 13.7251 15.3599C14.2851 15.2699 14.8401 15.1299 15.3801 14.9499C15.7651 14.8199 16.0601 14.5299 16.2001 14.1599C16.3401 13.7849 16.3001 13.3749 16.0951 13.0299ZM12.3751 10.9999C12.3751 11.2099 12.2051 11.3799 11.9951 11.3799C11.7851 11.3799 11.6151 11.2099 11.6151 10.9999V9.4499C11.6151 9.2399 11.7851 9.0699 11.9951 9.0699C12.2051 9.0699 12.3751 9.2399 12.3751 9.4499V10.9999Z" fill="#F24E1E"/>
<path d="M13.4151 16.005C13.2051 16.585 12.6501 17 12.0001 17C11.6051 17 11.2151 16.84 10.9401 16.555C10.7801 16.405 10.6601 16.205 10.5901 16C10.6551 16.01 10.7201 16.015 10.7901 16.025C10.9051 16.04 11.0251 16.055 11.1451 16.065C11.4301 16.09 11.7201 16.105 12.0101 16.105C12.2951 16.105 12.5801 16.09 12.8601 16.065C12.9651 16.055 13.0701 16.05 13.1701 16.035C13.2501 16.025 13.3301 16.015 13.4151 16.005Z" fill="#F24E1E"/>
</svg>
