<svg width="24" height="24" viewBox="0 0 24 24" fill="none" xmlns="http://www.w3.org/2000/svg">
<circle cx="12" cy="12" r="11.5" fill="white" stroke="#F24E1E"/>
<path d="M16.095 13.0299L15.53 12.0899C15.405 11.8849 15.295 11.4899 15.295 11.2499V10.3149C15.295 8.4999 13.82 7.0249 12.01 7.0249C10.195 7.0299 8.71998 8.4999 8.71998 10.3149V11.2449C8.71998 11.4849 8.60998 11.8799 8.48998 12.0849L7.92498 13.0249C7.70998 13.3899 7.65998 13.8049 7.79498 14.1649C7.92998 14.5299 8.23498 14.8199 8.63498 14.9499C9.17498 15.1299 9.71998 15.2599 10.275 15.3549C10.33 15.3649 10.385 15.3699 10.44 15.3799C10.51 15.3899 10.585 15.3999 10.66 15.4099C10.79 15.4299 10.92 15.4449 11.055 15.4549C11.37 15.4849 11.69 15.4999 12.01 15.4999C12.325 15.4999 12.64 15.4849 12.95 15.4549C13.065 15.4449 13.18 15.4349 13.29 15.4199C13.38 15.4099 13.47 15.3999 13.56 15.3849C13.615 15.3799 13.67 15.3699 13.725 15.3599C14.285 15.2699 14.84 15.1299 15.38 14.9499C15.765 14.8199 16.06 14.5299 16.2 14.1599C16.34 13.7849 16.3 13.3749 16.095 13.0299ZM12.375 10.9999C12.375 11.2099 12.205 11.3799 11.995 11.3799C11.785 11.3799 11.615 11.2099 11.615 10.9999V9.4499C11.615 9.2399 11.785 9.0699 11.995 9.0699C12.205 9.0699 12.375 9.2399 12.375 9.4499V10.9999Z" fill="#F24E1E"/>
<path d="M13.415 16.005C13.205 16.585 12.65 17 12 17C11.605 17 11.215 16.84 10.94 16.555C10.78 16.405 10.66 16.205 10.59 16C10.655 16.01 10.72 16.015 10.79 16.025C10.905 16.04 11.025 16.055 11.145 16.065C11.43 16.09 11.72 16.105 12.01 16.105C12.295 16.105 12.58 16.09 12.86 16.065C12.965 16.055 13.07 16.05 13.17 16.035C13.25 16.025 13.33 16.015 13.415 16.005Z" fill="#F24E1E"/>
</svg>
