<svg width="19" height="18" viewBox="0 0 19 18" fill="none" xmlns="http://www.w3.org/2000/svg">
<path d="M13.25 15.9375H5.75C3.0125 15.9375 1.4375 14.3625 1.4375 11.625V6.375C1.4375 3.6375 3.0125 2.0625 5.75 2.0625H13.25C15.9875 2.0625 17.5625 3.6375 17.5625 6.375V11.625C17.5625 14.3625 15.9875 15.9375 13.25 15.9375ZM5.75 3.1875C3.605 3.1875 2.5625 4.23 2.5625 6.375V11.625C2.5625 13.77 3.605 14.8125 5.75 14.8125H13.25C15.395 14.8125 16.4375 13.77 16.4375 11.625V6.375C16.4375 4.23 15.395 3.1875 13.25 3.1875H5.75Z" fill="#33414E"/>
<path d="M9.49983 9.65247C8.86983 9.65247 8.23234 9.45748 7.74484 9.05998L5.39733 7.18498C5.15733 6.98998 5.11234 6.63748 5.30734 6.39748C5.50234 6.15748 5.85484 6.11248 6.09484 6.30748L8.44233 8.18248C9.01233 8.63998 9.97983 8.63998 10.5498 8.18248L12.8973 6.30748C13.1373 6.11248 13.4973 6.14998 13.6848 6.39748C13.8798 6.63748 13.8423 6.99748 13.5948 7.18498L11.2473 9.05998C10.7673 9.45748 10.1298 9.65247 9.49983 9.65247Z" fill="#33414E"/>
</svg>
