<svg width="19" height="18" viewBox="0 0 19 18" fill="none" xmlns="http://www.w3.org/2000/svg">
<path d="M11.5 9.71289H6.25C5.9425 9.71289 5.6875 9.45789 5.6875 9.15039C5.6875 8.84289 5.9425 8.58789 6.25 8.58789H11.5C11.8075 8.58789 12.0625 8.84289 12.0625 9.15039C12.0625 9.45789 11.8075 9.71289 11.5 9.71289Z" fill="#242E37"/>
<path d="M9.535 12.7129H6.25C5.9425 12.7129 5.6875 12.4579 5.6875 12.1504C5.6875 11.8429 5.9425 11.5879 6.25 11.5879H9.535C9.8425 11.5879 10.0975 11.8429 10.0975 12.1504C10.0975 12.4579 9.8425 12.7129 9.535 12.7129Z" fill="#242E37"/>
<path d="M10.75 5.0625H7.75C7.03 5.0625 5.6875 5.0625 5.6875 3C5.6875 0.9375 7.03 0.9375 7.75 0.9375H10.75C11.47 0.9375 12.8125 0.9375 12.8125 3C12.8125 3.72 12.8125 5.0625 10.75 5.0625ZM7.75 2.0625C7.0075 2.0625 6.8125 2.0625 6.8125 3C6.8125 3.9375 7.0075 3.9375 7.75 3.9375H10.75C11.6875 3.9375 11.6875 3.7425 11.6875 3C11.6875 2.0625 11.4925 2.0625 10.75 2.0625H7.75Z" fill="#242E37"/>
<path d="M11.5 17.0618H7C2.785 17.0618 1.9375 15.1268 1.9375 11.9993V7.49934C1.9375 4.07934 3.175 2.61684 6.22 2.45934C6.52 2.44434 6.7975 2.67684 6.8125 2.99184C6.8275 3.30684 6.5875 3.56184 6.28 3.57684C4.15 3.69684 3.0625 4.33434 3.0625 7.49934V11.9993C3.0625 14.7743 3.61 15.9368 7 15.9368H11.5C14.89 15.9368 15.4375 14.7743 15.4375 11.9993V7.49934C15.4375 4.33434 14.35 3.69684 12.22 3.57684C11.9125 3.56184 11.6725 3.29184 11.6875 2.98434C11.7025 2.67684 11.9725 2.43684 12.28 2.45184C15.325 2.61684 16.5625 4.07934 16.5625 7.49184V11.9918C16.5625 15.1268 15.715 17.0618 11.5 17.0618Z" fill="#242E37"/>
</svg>
