<svg width="158" height="37" viewBox="0 0 158 37" fill="none" xmlns="http://www.w3.org/2000/svg">
<g clip-path="url(#clip0_4570_3209)">
<path d="M56.6356 15.3793H51.3439V18.6922H57.2434V21.3076H48.0544V7.25391H56.9216V9.86936H51.3081V12.7987H56.5998V15.3793H56.6356Z" fill="#D4D5D4"/>
<path d="M65.2882 21.3068L65.0737 20.2607H65.0022C64.3586 21.0976 63.2859 21.5161 62.0345 21.5161C59.925 21.5161 58.6736 20.0165 58.6736 18.4124C58.6736 15.7621 61.1049 14.5066 64.7876 14.5066V14.3672C64.7876 13.8092 64.5016 13.042 62.8926 13.042C61.82 13.042 60.7116 13.3907 59.9965 13.8092L59.3887 11.7866C60.1038 11.403 61.534 10.8799 63.429 10.8799C66.8972 10.8799 68.0056 12.8676 68.0056 15.2739V18.8309C68.0056 19.8073 68.0413 20.7489 68.1486 21.3068H65.2882ZM64.8949 16.4944C63.1787 16.4595 61.8557 16.878 61.8557 18.0985C61.8557 18.9006 62.4278 19.3191 63.1429 19.3191C63.9653 19.3191 64.6089 18.796 64.8234 18.1683C64.8591 17.9939 64.8949 17.8196 64.8949 17.6103V16.4944Z" fill="#D4D5D4"/>
<path d="M70.5799 18.5173C71.1877 18.866 72.4034 19.2845 73.3688 19.2845C74.3341 19.2845 74.7632 18.9358 74.7632 18.4476C74.7632 17.9245 74.4414 17.6804 73.2257 17.2968C71.0805 16.5993 70.2223 15.4485 70.2581 14.228C70.2581 12.3448 71.9386 10.915 74.5129 10.915C75.7286 10.915 76.8012 11.194 77.4448 11.5079L76.8727 13.67C76.4079 13.4259 75.514 13.0771 74.6202 13.0771C73.8336 13.0771 73.3688 13.391 73.3688 13.9141C73.3688 14.4023 73.7621 14.6464 75.0492 15.0649C77.0157 15.7275 77.8738 16.7039 77.8738 18.2034C77.8738 20.0866 76.3364 21.4815 73.3688 21.4815C72.0101 21.4815 70.7944 21.2025 70.0078 20.784L70.5799 18.5173Z" fill="#D4D5D4"/>
<path d="M82.3073 11.1247L83.8805 16.1115C84.0592 16.7044 84.2738 17.4716 84.381 17.9946H84.4526C84.5956 17.4367 84.7743 16.6695 84.9174 16.1115L86.2045 11.1247H89.6727L87.2414 17.8203C85.7397 21.8655 84.7386 23.4697 83.5587 24.5159C82.4145 25.4574 81.2346 25.8061 80.4123 25.9108L79.7329 23.1907C80.1262 23.1209 80.6626 22.9466 81.1274 22.6327C81.6279 22.3886 82.1642 21.9004 82.486 21.3773C82.5933 21.2378 82.6648 21.0983 82.6648 20.924C82.6648 20.8193 82.6291 20.645 82.5218 20.4009L78.696 11.0898H82.3073V11.1247Z" fill="#D4D5D4"/>
<path d="M94.3923 7.25391V21.2728H91.1387V7.25391H94.3923Z" fill="#F24E1E"/>
<path d="M97.1098 14.3672C97.1098 13.1117 97.0741 12.0307 97.0383 11.124H99.863L100.006 12.5189H100.077C100.507 11.8912 101.579 10.8799 103.295 10.8799C105.441 10.8799 107.014 12.2399 107.014 15.239V21.272H103.76V15.6575C103.76 14.3323 103.295 13.4605 102.115 13.4605C101.222 13.4605 100.685 14.0533 100.471 14.6461C100.399 14.8205 100.328 15.1344 100.328 15.4482V21.3068H97.0741V14.3672H97.1098Z" fill="#F24E1E"/>
<path d="M112.019 11.124L113.414 15.8318C113.664 16.6688 113.879 17.5057 114.022 18.3078H114.093C114.272 17.4709 114.451 16.7037 114.665 15.8318L116.024 11.124H119.421L115.523 21.3069H112.27L108.48 11.124H112.019Z" fill="#F24E1E"/>
<path d="M131.22 16.0759C131.22 19.8073 128.503 21.5161 125.714 21.5161C122.675 21.5161 120.315 19.5632 120.315 16.2852C120.315 13.0071 122.531 10.8799 125.892 10.8799C129.075 10.8799 131.22 13.042 131.22 16.0759ZM123.676 16.1805C123.676 17.9242 124.426 19.2493 125.821 19.2493C127.072 19.2493 127.895 18.0288 127.895 16.1805C127.895 14.6461 127.287 13.1117 125.821 13.1117C124.248 13.1466 123.676 14.681 123.676 16.1805Z" fill="#F24E1E"/>
<path d="M136.583 8.29946C136.583 9.17128 135.904 9.86873 134.831 9.86873C133.794 9.86873 133.115 9.17128 133.151 8.29946C133.115 7.39277 133.794 6.69531 134.867 6.69531C135.904 6.69531 136.547 7.3579 136.583 8.29946ZM133.222 21.307V11.1242H136.476V21.307H133.222Z" fill="#F24E1E"/>
<path d="M146.916 21.0279C146.344 21.272 145.236 21.4812 144.02 21.4812C140.659 21.4812 138.478 19.4935 138.478 16.2852C138.478 13.321 140.552 10.8799 144.449 10.8799C145.307 10.8799 146.237 11.0194 146.916 11.2635L146.416 13.6C146.022 13.4256 145.45 13.2861 144.592 13.2861C142.876 13.2861 141.767 14.4718 141.803 16.1457C141.803 18.0288 143.09 19.0052 144.664 19.0052C145.414 19.0052 146.022 18.8657 146.523 18.6914L146.916 21.0279Z" fill="#F24E1E"/>
<path d="M151.207 17.2274C151.314 18.5526 152.637 19.1454 154.138 19.1454C155.247 19.1454 156.141 19.0059 157.035 18.7269L157.464 20.8542C156.391 21.2727 155.104 21.4819 153.674 21.4819C150.134 21.4819 148.096 19.4941 148.096 16.2859C148.096 13.7053 149.741 10.8457 153.352 10.8457C156.713 10.8457 158 13.3914 158 15.9371C158 16.4951 157.928 16.9484 157.893 17.1925H151.207V17.2274ZM154.997 15.0653C154.997 14.2981 154.639 13.0078 153.173 13.0078C151.814 13.0078 151.242 14.2284 151.171 15.0653H154.997Z" fill="#F24E1E"/>
<path d="M52.7382 30.0944C52.7382 31.8031 51.6656 32.7796 50.2354 32.7796C48.7695 32.7796 47.8398 31.6985 47.8398 30.199C47.8398 28.6297 48.841 27.5486 50.3069 27.5486C51.8086 27.5138 52.7382 28.6297 52.7382 30.0944ZM48.841 30.1641C48.841 31.2103 49.3773 32.0124 50.2712 32.0124C51.2008 32.0124 51.7014 31.1754 51.7014 30.1292C51.7014 29.1877 51.2008 28.281 50.2712 28.281C49.3415 28.2461 48.841 29.1179 48.841 30.1641Z" fill="#8B8A8A"/>
<path d="M54.6691 30.0951C54.6691 29.6767 54.6691 29.3279 54.6333 29.0141H55.4557L55.4914 29.572H55.5272C55.7059 29.2931 56.0992 28.9443 56.7428 28.9443C57.3864 28.9443 58.0658 29.3628 58.0658 30.5136V32.7106H57.1004V30.6182C57.1004 30.0951 56.8858 29.6767 56.3853 29.6767C55.992 29.6767 55.7417 29.9556 55.6344 30.2346C55.5987 30.3044 55.5987 30.4439 55.5987 30.5485V32.7106H54.6333V30.0951H54.6691Z" fill="#8B8A8A"/>
<path d="M60.2109 27.3398H61.1763V32.7102H60.2109V27.3398Z" fill="#8B8A8A"/>
<path d="M64.3585 27.9677C64.3585 28.2467 64.144 28.4559 63.8222 28.4559C63.5004 28.4559 63.2859 28.2467 63.2859 27.9677C63.2859 27.6887 63.5004 27.4795 63.8222 27.4795C64.144 27.4795 64.3228 27.6887 64.3585 27.9677ZM63.3216 32.6755V29.0139H64.287V32.6755H63.3216Z" fill="#8B8A8A"/>
<path d="M66.4322 30.0951C66.4322 29.6767 66.4322 29.3279 66.3965 29.0141H67.2188L67.2546 29.572H67.2904C67.4691 29.2931 67.8624 28.9443 68.506 28.9443C69.1496 28.9443 69.8289 29.3628 69.8289 30.5136V32.7106H68.8636V30.6182C68.8636 30.0951 68.649 29.6767 68.1485 29.6767C67.7552 29.6767 67.5049 29.9556 67.3976 30.2346C67.3619 30.3044 67.3619 30.4439 67.3619 30.5485V32.7106H66.3965V30.0951H66.4322Z" fill="#8B8A8A"/>
<path d="M72.6535 31.1059C72.6893 31.7685 73.2256 32.0474 73.7976 32.0474C74.2267 32.0474 74.5485 31.9777 74.8345 31.8731L74.9776 32.5008C74.6558 32.6403 74.191 32.71 73.6546 32.71C72.439 32.71 71.7239 31.9777 71.7239 30.8618C71.7239 29.8505 72.3675 28.874 73.5474 28.874C74.763 28.874 75.1563 29.8505 75.1563 30.6525C75.1563 30.8269 75.1563 30.9664 75.1206 31.0361H72.6535V31.1059ZM74.334 30.4433C74.334 30.0946 74.191 29.5366 73.5474 29.5366C72.9753 29.5366 72.725 30.0597 72.6893 30.4433H74.334Z" fill="#8B8A8A"/>
<path d="M80.8771 27.9677C80.8771 28.2467 80.6626 28.4559 80.3408 28.4559C80.019 28.4559 79.8044 28.2467 79.8044 27.9677C79.8044 27.6887 80.019 27.4795 80.3408 27.4795C80.6626 27.4795 80.8413 27.6887 80.8771 27.9677ZM79.8402 32.6755V29.0139H80.8056V32.6755H79.8402Z" fill="#8B8A8A"/>
<path d="M82.951 30.0951C82.951 29.6767 82.951 29.3279 82.9153 29.0141H83.7376L83.7734 29.572H83.8092C83.9879 29.2931 84.3812 28.9443 85.0248 28.9443C85.6684 28.9443 86.3477 29.3628 86.3477 30.5136V32.7106H85.3824V30.6182C85.3824 30.0951 85.1678 29.6767 84.6673 29.6767C84.274 29.6767 84.0237 29.9556 83.9164 30.2346C83.8807 30.3044 83.8807 30.4439 83.8807 30.5485V32.7106H82.951V30.0951Z" fill="#8B8A8A"/>
<path d="M88.9934 29.0137L89.6013 30.8619C89.7085 31.1758 89.78 31.4896 89.8515 31.7686H89.8873C89.9588 31.4548 90.0303 31.1758 90.1376 30.8619L90.7454 29.0137H91.7465L90.3164 32.6753H89.3867L87.9565 29.0137H88.9934Z" fill="#8B8A8A"/>
<path d="M96.931 30.8276C96.931 32.1876 95.9656 32.7805 95.0002 32.7805C93.9276 32.7805 93.1052 32.0481 93.1052 30.8973C93.1052 29.6768 93.9276 28.9445 95.0717 28.9445C96.1801 28.9096 96.931 29.7117 96.931 30.8276ZM94.1064 30.8625C94.1064 31.5599 94.4639 32.1179 95.036 32.1179C95.5723 32.1179 95.9656 31.5948 95.9656 30.8625C95.9656 30.3045 95.7153 29.6419 95.036 29.6419C94.3566 29.607 94.1064 30.2347 94.1064 30.8625Z" fill="#8B8A8A"/>
<path d="M99.8629 27.9677C99.8629 28.2467 99.6484 28.4559 99.3266 28.4559C99.0048 28.4559 98.7903 28.2467 98.7903 27.9677C98.7903 27.6887 99.0048 27.4795 99.3266 27.4795C99.6484 27.4795 99.8629 27.6887 99.8629 27.9677ZM98.8618 32.6755V29.0139H99.8272V32.6755H98.8618Z" fill="#8B8A8A"/>
<path d="M104.726 32.5708C104.511 32.6754 104.118 32.7452 103.653 32.7452C102.473 32.7452 101.722 32.0129 101.722 30.8621C101.722 29.7461 102.509 28.9092 103.832 28.9092C104.189 28.9092 104.547 28.9789 104.761 29.0835L104.583 29.781C104.44 29.7113 104.189 29.6415 103.867 29.6415C103.152 29.6415 102.723 30.1646 102.723 30.8272C102.723 31.5944 103.224 32.0129 103.867 32.0129C104.189 32.0129 104.44 31.9431 104.618 31.8734L104.726 32.5708Z" fill="#8B8A8A"/>
<path d="M107.586 27.9677C107.586 28.2467 107.371 28.4559 107.05 28.4559C106.728 28.4559 106.513 28.2467 106.513 27.9677C106.513 27.6887 106.728 27.4795 107.05 27.4795C107.371 27.4795 107.55 27.6887 107.586 27.9677ZM106.549 32.6755V29.0139H107.514V32.6755H106.549Z" fill="#8B8A8A"/>
<path d="M109.66 30.0951C109.66 29.6767 109.66 29.3279 109.624 29.0141H110.446L110.482 29.572H110.518C110.697 29.2931 111.09 28.9443 111.734 28.9443C112.377 28.9443 113.056 29.3628 113.056 30.5136V32.7106H112.091V30.6182C112.091 30.0951 111.877 29.6767 111.376 29.6767C110.983 29.6767 110.732 29.9556 110.625 30.2346C110.589 30.3044 110.589 30.4439 110.589 30.5485V32.7106H109.624V30.0951H109.66Z" fill="#8B8A8A"/>
<path d="M118.67 29.0141C118.67 29.2582 118.634 29.572 118.634 30.0603V32.1526C118.634 32.9198 118.455 33.4778 118.062 33.8265C117.669 34.1752 117.132 34.2799 116.596 34.2799C116.131 34.2799 115.595 34.1753 115.273 34.0009L115.488 33.3034C115.738 33.4429 116.131 33.5824 116.596 33.5824C117.204 33.5824 117.669 33.2686 117.669 32.4665V32.1178C117.454 32.4316 117.061 32.6757 116.56 32.6757C115.631 32.6757 114.951 31.9085 114.951 30.8972C114.951 29.6767 115.774 28.9443 116.668 28.9443C117.24 28.9443 117.597 29.2233 117.776 29.5023L117.812 29.0141H118.67ZM117.669 30.4787C117.669 30.409 117.669 30.3044 117.633 30.2346C117.526 29.8859 117.275 29.6418 116.846 29.6418C116.31 29.6418 115.917 30.0951 115.917 30.8275C115.917 31.4552 116.239 31.9434 116.846 31.9434C117.204 31.9434 117.526 31.7342 117.633 31.3854C117.669 31.2808 117.669 31.1762 117.669 31.0367V30.4787Z" fill="#8B8A8A"/>
<path d="M123.461 31.8388C123.676 31.9783 124.105 32.1178 124.426 32.1178C124.856 32.1178 125.034 31.9434 125.034 31.6993C125.034 31.4552 124.891 31.3157 124.426 31.1762C123.676 30.9321 123.39 30.5485 123.39 30.0951C123.39 29.4326 123.926 28.9443 124.82 28.9443C125.249 28.9443 125.606 29.049 125.821 29.1536L125.642 29.8162C125.463 29.7115 125.142 29.6069 124.82 29.6069C124.462 29.6069 124.283 29.7813 124.283 29.9905C124.283 30.2346 124.462 30.3392 124.927 30.5136C125.606 30.7577 125.928 31.1064 125.928 31.6295C125.928 32.2921 125.392 32.7803 124.391 32.7803C123.926 32.7803 123.533 32.6757 123.247 32.5362L123.461 31.8388Z" fill="#8B8A8A"/>
<path d="M131.47 30.8276C131.47 32.1876 130.505 32.7805 129.539 32.7805C128.467 32.7805 127.644 32.0481 127.644 30.8973C127.644 29.6768 128.467 28.9445 129.611 28.9445C130.719 28.9096 131.47 29.7117 131.47 30.8276ZM128.61 30.8625C128.61 31.5599 128.967 32.1179 129.539 32.1179C130.076 32.1179 130.469 31.5948 130.469 30.8625C130.469 30.3045 130.219 29.6419 129.539 29.6419C128.896 29.607 128.61 30.2347 128.61 30.8625Z" fill="#8B8A8A"/>
<path d="M133.365 27.3398H134.33V32.7102H133.365V27.3398Z" fill="#8B8A8A"/>
<path d="M139.872 31.5943C139.872 32.0476 139.872 32.3963 139.908 32.7102H139.086L139.05 32.1522C138.871 32.4312 138.514 32.7799 137.834 32.7799C137.155 32.7799 136.511 32.3963 136.511 31.1758V29.0137H137.477V31.0014C137.477 31.6291 137.691 32.0127 138.192 32.0127C138.585 32.0127 138.836 31.7337 138.907 31.5245C138.943 31.4548 138.979 31.3501 138.979 31.2455V29.0137H139.944V31.5943H139.872Z" fill="#8B8A8A"/>
<path d="M143.126 27.9678V29.014H144.02V29.7114H143.126V31.3504C143.126 31.8038 143.233 32.013 143.627 32.013C143.805 32.013 143.913 31.9781 143.984 31.9781V32.6756C143.841 32.7453 143.591 32.7802 143.305 32.7802C142.947 32.7802 142.661 32.6756 142.483 32.4664C142.268 32.2571 142.196 31.9084 142.196 31.455V29.7114H141.66V29.014H142.196V28.177L143.126 27.9678Z" fill="#8B8A8A"/>
<path d="M146.88 27.9677C146.88 28.2467 146.666 28.4559 146.344 28.4559C146.022 28.4559 145.808 28.2467 145.808 27.9677C145.808 27.6887 146.022 27.4795 146.344 27.4795C146.666 27.4795 146.88 27.6887 146.88 27.9677ZM145.879 32.6755V29.0139H146.845V32.6755H145.879Z" fill="#8B8A8A"/>
<path d="M152.565 30.8276C152.565 32.1876 151.6 32.7805 150.635 32.7805C149.562 32.7805 148.74 32.0481 148.74 30.8973C148.74 29.6768 149.562 28.9445 150.706 28.9445C151.814 28.9096 152.565 29.7117 152.565 30.8276ZM149.705 30.8625C149.705 31.5599 150.062 32.1179 150.635 32.1179C151.171 32.1179 151.564 31.5948 151.564 30.8625C151.564 30.3045 151.314 29.6419 150.635 29.6419C149.991 29.607 149.705 30.2347 149.705 30.8625Z" fill="#8B8A8A"/>
<path d="M154.46 30.0951C154.46 29.6767 154.46 29.3279 154.425 29.0141H155.247L155.283 29.572H155.318C155.497 29.2931 155.891 28.9443 156.534 28.9443C157.178 28.9443 157.857 29.3628 157.857 30.5136V32.7106H156.892V30.6182C156.892 30.0951 156.677 29.6767 156.177 29.6767C155.783 29.6767 155.533 29.9556 155.426 30.2346C155.39 30.3044 155.39 30.4439 155.39 30.5485V32.7106H154.46V30.0951Z" fill="#8B8A8A"/>
<path d="M31.1423 10.6365L28.3177 10.0785L26.2439 9.69494L25.2785 9.4857L22.4897 8.96261C21.6315 8.78825 20.8092 9.34621 20.6304 10.1832C20.4516 10.9852 21.0237 11.8222 21.8818 11.9617L25.6361 12.694L30.5345 13.6356C31.3568 13.8099 32.1792 13.252 32.358 12.4499C32.5367 11.6129 31.9647 10.8109 31.1423 10.6365Z" fill="#8B8A8A"/>
<path d="M17.9489 11.1948C18.8178 11.1948 19.5221 10.5078 19.5221 9.66038C19.5221 8.81295 18.8178 8.12598 17.9489 8.12598C17.0801 8.12598 16.3757 8.81295 16.3757 9.66038C16.3757 10.5078 17.0801 11.1948 17.9489 11.1948Z" fill="#8B8A8A"/>
<path d="M28.8183 16.809L26.0652 16.1813L23.9914 15.6931L23.0261 15.4839L20.2372 14.8213C19.4148 14.6469 18.5567 15.1352 18.3422 15.9721C18.1634 16.7742 18.664 17.6111 19.5221 17.8204L23.2406 18.6922L28.0675 19.8081C28.9256 20.0173 29.748 19.4942 29.9625 18.6573C30.177 17.8552 29.6764 17.0183 28.8183 16.809Z" fill="#8B8A8A"/>
<path d="M15.6965 16.8794C16.5654 16.8794 17.2697 16.1924 17.2697 15.3449C17.2697 14.4975 16.5654 13.8105 15.6965 13.8105C14.8276 13.8105 14.1233 14.4975 14.1233 15.3449C14.1233 16.1924 14.8276 16.8794 15.6965 16.8794Z" fill="#8B8A8A"/>
<path d="M26.6017 22.8422L23.8486 22.1447L21.7748 21.6216L20.8094 21.3775L18.0563 20.68C17.1982 20.4708 16.3401 20.9939 16.1255 21.796C15.911 22.6329 16.4473 23.4699 17.2697 23.6791L20.9882 24.5858L25.8151 25.8063C26.6374 26.0156 27.5313 25.5274 27.7458 24.6904C27.9246 23.8883 27.424 23.0514 26.6017 22.8422Z" fill="#8B8A8A"/>
<path d="M13.5868 19.599C12.693 19.5641 11.9779 20.2267 11.9064 21.0636C11.8706 21.9006 12.55 22.6329 13.4081 22.6678C14.2662 22.7026 15.017 22.0749 15.0528 21.238C15.0885 20.3662 14.445 19.6687 13.5868 19.599Z" fill="#8B8A8A"/>
<path d="M8.47386 21.5516C9.11745 21.5516 9.65377 21.168 9.8683 20.6449L16.4472 3.73157L17.2338 3.87106L30.7848 6.52139L31.8217 6.69576C31.7144 6.20754 31.6429 5.71932 31.6429 5.19623C31.6429 4.63826 31.7144 4.0803 31.8574 3.59208L31.1423 3.45259V3.41772L18.4137 0.976624L17.8416 0.872005L16.0896 0.523278C16.0896 0.523278 14.5879 0.279168 14.0516 1.56946L13.8013 2.19717L7.04368 19.5638C7.00792 19.7382 6.97217 19.8777 6.97217 20.052C6.97217 20.889 7.65151 21.5516 8.47386 21.5516Z" fill="#F24E1E"/>
<path d="M38.2216 11.6128C37.1847 11.6128 36.2193 11.3687 35.3254 10.9502L33.1801 17.1227L32.2863 19.7381H32.322C30.9991 23.5044 28.4605 30.2 26.494 31.8739C26.351 31.9785 26.2437 32.0482 26.1365 32.118C23.1688 34.3847 21.3096 33.9313 21.3096 33.9313C17.7699 33.6872 17.8056 27.6891 17.8056 27.6891L0.214314 20.8192C-1.18012 28.7702 4.32611 30.3046 4.32611 30.3046L7.3295 31.6297L16.2324 35.5704C19.4503 37.1048 21.1308 37.0001 21.1308 37.0001C24.5633 37.035 26.9946 35.3263 27.8885 34.5591C27.9242 34.5242 31.4639 32.6062 36.112 17.9596L38.2931 11.6476C38.2931 11.6128 38.2573 11.6128 38.2216 11.6128Z" fill="#F24E1E"/>
<path d="M38.1502 0C35.2183 0 32.8228 2.33648 32.8228 5.19604C32.8228 8.05561 35.2183 10.3921 38.1502 10.3921C41.0821 10.3921 43.4777 8.05561 43.4777 5.19604C43.5134 2.33648 41.1178 0 38.1502 0ZM41.3681 4.56833L38.0787 7.77663C37.9357 7.91612 37.7569 7.98586 37.5781 7.98586C37.3994 7.98586 37.2206 7.91612 37.0776 7.77663L35.3256 6.10273C35.0395 5.82375 35.0395 5.40528 35.3256 5.16117C35.6116 4.88219 36.0407 4.88219 36.291 5.16117L37.5781 6.41659L40.4027 3.66164C40.6888 3.38266 41.1178 3.38266 41.3681 3.66164C41.6542 3.90575 41.6542 4.32422 41.3681 4.56833Z" fill="#F24E1E"/>
</g>
<defs>
<clipPath id="clip0_4570_3209">
<rect width="158" height="37" fill="white"/>
</clipPath>
</defs>
</svg>
