<svg width="19" height="18" viewBox="0 0 19 18" fill="none" xmlns="http://www.w3.org/2000/svg">
<path d="M16.5 5.04687C16.485 5.04687 16.4625 5.04687 16.44 5.04687C12.4725 4.64937 8.5125 4.49937 4.59 4.89687L3.06 5.04687C2.745 5.07687 2.4675 4.85187 2.4375 4.53687C2.4075 4.22187 2.6325 3.95187 2.94 3.92187L4.47 3.77187C8.46 3.36687 12.5025 3.52437 16.5525 3.92187C16.86 3.95187 17.085 4.22937 17.055 4.53687C17.0325 4.82937 16.785 5.04687 16.5 5.04687Z" fill="#242E37"/>
<path d="M7.12501 4.29C7.09501 4.29 7.06501 4.29 7.02751 4.2825C6.72751 4.23 6.51751 3.9375 6.57001 3.6375L6.73501 2.655C6.85501 1.935 7.02001 0.9375 8.76751 0.9375H10.7325C12.4875 0.9375 12.6525 1.9725 12.765 2.6625L12.93 3.6375C12.9825 3.945 12.7725 4.2375 12.4725 4.2825C12.165 4.335 11.8725 4.125 11.8275 3.825L11.6625 2.85C11.5575 2.1975 11.535 2.07 10.74 2.07H8.77501C7.98001 2.07 7.96501 2.175 7.85251 2.8425L7.68001 3.8175C7.63501 4.095 7.39501 4.29 7.12501 4.29Z" fill="#242E37"/>
<path d="M12.1575 17.0617H7.3425C4.725 17.0617 4.62 15.6142 4.5375 14.4442L4.05 6.8917C4.0275 6.5842 4.2675 6.3142 4.575 6.2917C4.89 6.2767 5.1525 6.5092 5.175 6.8167L5.6625 14.3692C5.745 15.5092 5.775 15.9367 7.3425 15.9367H12.1575C13.7325 15.9367 13.7625 15.5092 13.8375 14.3692L14.325 6.8167C14.3475 6.5092 14.6175 6.2767 14.925 6.2917C15.2325 6.3142 15.4725 6.5767 15.45 6.8917L14.9625 14.4442C14.88 15.6142 14.775 17.0617 12.1575 17.0617Z" fill="#242E37"/>
<path d="M10.995 12.9375H8.4975C8.19 12.9375 7.935 12.6825 7.935 12.375C7.935 12.0675 8.19 11.8125 8.4975 11.8125H10.995C11.3025 11.8125 11.5575 12.0675 11.5575 12.375C11.5575 12.6825 11.3025 12.9375 10.995 12.9375Z" fill="#242E37"/>
<path d="M11.625 9.9375H7.875C7.5675 9.9375 7.3125 9.6825 7.3125 9.375C7.3125 9.0675 7.5675 8.8125 7.875 8.8125H11.625C11.9325 8.8125 12.1875 9.0675 12.1875 9.375C12.1875 9.6825 11.9325 9.9375 11.625 9.9375Z" fill="#151B33"/>
</svg>
