<svg width="196" height="47" viewBox="0 0 196 47" fill="none" xmlns="http://www.w3.org/2000/svg">
<g clip-path="url(#clip0_4521_6481)">
<path d="M70.2566 19.5353H63.6923V23.7436H71.0107V27.0659H59.6117V9.21387H70.6115V12.5362H63.6479V16.2572H70.2123V19.5353H70.2566Z" fill="#2A2B2A"/>
<path d="M80.9903 27.0663L80.7241 25.7374H80.6354C79.8371 26.8006 78.5064 27.3321 76.9541 27.3321C74.3372 27.3321 72.7848 25.4273 72.7848 23.3896C72.7848 20.023 75.8009 18.4283 80.3693 18.4283V18.2511C80.3693 17.5423 80.0145 16.5678 78.0186 16.5678C76.6879 16.5678 75.313 17.0107 74.4259 17.5423L73.6719 14.973C74.559 14.4858 76.3331 13.8213 78.6839 13.8213C82.9862 13.8213 84.3612 16.3463 84.3612 19.4028V23.9212C84.3612 25.1615 84.4055 26.3576 84.5386 27.0663H80.9903ZM80.5024 20.9532C78.3734 20.9089 76.7323 21.4405 76.7323 22.9909C76.7323 24.0098 77.442 24.5414 78.329 24.5414C79.3492 24.5414 80.1475 23.8769 80.4137 23.0795C80.458 22.858 80.5024 22.6366 80.5024 22.3708V20.9532Z" fill="#2A2B2A"/>
<path d="M87.5546 23.5222C88.3086 23.9651 89.8167 24.4967 91.0142 24.4967C92.2118 24.4967 92.744 24.0537 92.744 23.4336C92.744 22.7691 92.3449 22.459 90.8368 21.9717C88.1756 21.0858 87.1111 19.624 87.1554 18.0735C87.1554 15.6814 89.2401 13.8652 92.4336 13.8652C93.9416 13.8652 95.2722 14.2196 96.0706 14.6183L95.3609 17.3648C94.7843 17.0547 93.6755 16.6117 92.5666 16.6117C91.5908 16.6117 91.0142 17.0104 91.0142 17.6748C91.0142 18.295 91.5021 18.6051 93.0989 19.1367C95.5383 19.9783 96.6028 21.2187 96.6028 23.1235C96.6028 25.5156 94.6956 27.2875 91.0142 27.2875C89.3288 27.2875 87.8208 26.9331 86.845 26.4015L87.5546 23.5222Z" fill="#2A2B2A"/>
<path d="M102.103 14.1312L104.054 20.4658C104.276 21.2189 104.542 22.1934 104.675 22.8579H104.764C104.941 22.1491 105.163 21.1746 105.341 20.4658L106.937 14.1312H111.24L108.224 22.6364C106.361 27.7749 105.119 29.8126 103.655 31.1416C102.236 32.3376 100.772 32.7806 99.752 32.9135L98.9092 29.4583C99.3971 29.3697 100.062 29.1482 100.639 28.7495C101.26 28.4394 101.925 27.8192 102.324 27.1548C102.458 26.9776 102.546 26.8004 102.546 26.5789C102.546 26.446 102.502 26.2245 102.369 25.9144L97.623 14.0869H102.103V14.1312Z" fill="#2A2B2A"/>
<path d="M117.094 9.21387V27.0216H113.058V9.21387H117.094Z" fill="#E95626"/>
<path d="M120.465 18.2511C120.465 16.6564 120.421 15.2831 120.377 14.1314H123.881L124.058 15.9033H124.147C124.679 15.1059 126.01 13.8213 128.139 13.8213C130.8 13.8213 132.751 15.5489 132.751 19.3585V27.022H128.715V19.8901C128.715 18.2068 128.139 17.0993 126.675 17.0993C125.566 17.0993 124.901 17.8524 124.635 18.6055C124.546 18.8269 124.457 19.2256 124.457 19.6243V27.0663H120.421V18.2511H120.465Z" fill="#E95626"/>
<path d="M138.961 14.1309L140.691 20.1111C141.001 21.1742 141.267 22.2374 141.445 23.2562H141.533C141.755 22.1931 141.977 21.2185 142.243 20.1111L143.929 14.1309H148.142L143.308 27.0658H139.271L134.57 14.1309H138.961Z" fill="#E95626"/>
<path d="M162.779 20.4217C162.779 25.1615 159.408 27.3321 155.948 27.3321C152.178 27.3321 149.251 24.8514 149.251 20.6875C149.251 16.5235 152.001 13.8213 156.17 13.8213C160.118 13.8213 162.779 16.5678 162.779 20.4217ZM153.42 20.5546C153.42 22.7695 154.352 24.4528 156.081 24.4528C157.634 24.4528 158.654 22.9023 158.654 20.5546C158.654 18.6055 157.9 16.6564 156.081 16.6564C154.13 16.7006 153.42 18.6498 153.42 20.5546Z" fill="#E95626"/>
<path d="M169.432 10.5426C169.432 11.65 168.589 12.536 167.259 12.536C165.972 12.536 165.13 11.65 165.174 10.5426C165.13 9.39084 165.972 8.50488 167.303 8.50488C168.589 8.50488 169.388 9.34654 169.432 10.5426ZM165.263 27.0657V14.1307H169.299V27.0657H165.263Z" fill="#E95626"/>
<path d="M182.25 26.712C181.541 27.022 180.166 27.2878 178.658 27.2878C174.488 27.2878 171.783 24.7629 171.783 20.6875C171.783 16.9221 174.355 13.8213 179.19 13.8213C180.254 13.8213 181.408 13.9985 182.25 14.3086L181.629 17.2765C181.141 17.055 180.432 16.8778 179.367 16.8778C177.238 16.8778 175.863 18.384 175.908 20.5103C175.908 22.9023 177.504 24.1427 179.456 24.1427C180.387 24.1427 181.141 23.9655 181.762 23.744L182.25 26.712Z" fill="#E95626"/>
<path d="M187.573 21.8829C187.706 23.5662 189.347 24.3193 191.21 24.3193C192.585 24.3193 193.694 24.1421 194.802 23.7877L195.335 26.4898C194.004 27.0214 192.407 27.2872 190.633 27.2872C186.242 27.2872 183.714 24.7622 183.714 20.6868C183.714 17.4088 185.754 13.7764 190.234 13.7764C194.403 13.7764 196 17.0101 196 20.2439C196 20.9526 195.911 21.5285 195.867 21.8386H187.573V21.8829ZM192.274 19.1364C192.274 18.1619 191.831 16.5228 190.012 16.5228C188.327 16.5228 187.617 18.0733 187.528 19.1364H192.274Z" fill="#E95626"/>
<path d="M65.4221 38.2289C65.4221 40.3995 64.0915 41.6398 62.3173 41.6398C60.4988 41.6398 59.3456 40.2666 59.3456 38.3618C59.3456 36.3684 60.5875 34.9952 62.406 34.9952C64.2689 34.9509 65.4221 36.3684 65.4221 38.2289ZM60.5875 38.3175C60.5875 39.6464 61.2528 40.6653 62.3616 40.6653C63.5149 40.6653 64.1358 39.6021 64.1358 38.2732C64.1358 37.0772 63.5149 35.9254 62.3616 35.9254C61.2084 35.8811 60.5875 36.9886 60.5875 38.3175Z" fill="#8B8A8A"/>
<path d="M67.8172 38.2294C67.8172 37.6978 67.8172 37.2549 67.7728 36.8562H68.793L68.8373 37.5649H68.8817C69.1034 37.2106 69.5913 36.7676 70.3897 36.7676C71.1881 36.7676 72.0308 37.2992 72.0308 38.761V41.5517H70.8333V38.8939C70.8333 38.2294 70.5671 37.6978 69.9462 37.6978C69.4583 37.6978 69.1478 38.0522 69.0147 38.4066C68.9704 38.4952 68.9704 38.6724 68.9704 38.8053V41.5517H67.7728V38.2294H67.8172Z" fill="#8B8A8A"/>
<path d="M74.692 34.7295H75.8896V41.5514H74.692V34.7295Z" fill="#8B8A8A"/>
<path d="M79.8371 35.5264C79.8371 35.8808 79.571 36.1466 79.1718 36.1466C78.7726 36.1466 78.5065 35.8808 78.5065 35.5264C78.5065 35.172 78.7726 34.9062 79.1718 34.9062C79.571 34.9062 79.7927 35.172 79.8371 35.5264ZM78.5508 41.5066V36.8554H79.7484V41.5066H78.5508Z" fill="#8B8A8A"/>
<path d="M82.4097 38.2294C82.4097 37.6978 82.4096 37.2549 82.3653 36.8562H83.3854L83.4298 37.5649H83.4741C83.6959 37.2106 84.1838 36.7676 84.9822 36.7676C85.7805 36.7676 86.6233 37.2992 86.6233 38.761V41.5517H85.4257V38.8939C85.4257 38.2294 85.1596 37.6978 84.5386 37.6978C84.0507 37.6978 83.7403 38.0522 83.6072 38.4066C83.5629 38.4952 83.5629 38.6724 83.5629 38.8053V41.5517H82.3653V38.2294H82.4097Z" fill="#8B8A8A"/>
<path d="M90.1272 39.5138C90.1716 40.3554 90.8369 40.7098 91.5465 40.7098C92.0788 40.7098 92.478 40.6212 92.8328 40.4883L93.0102 41.2857C92.611 41.4629 92.0344 41.5515 91.3691 41.5515C89.8611 41.5515 88.974 40.6212 88.974 39.2037C88.974 37.9191 89.7724 36.6787 91.2361 36.6787C92.7441 36.6787 93.232 37.9191 93.232 38.9379C93.232 39.1594 93.232 39.3366 93.1876 39.4252H90.1272V39.5138ZM92.2118 38.6721C92.2118 38.2291 92.0344 37.5204 91.2361 37.5204C90.5264 37.5204 90.2159 38.1848 90.1716 38.6721H92.2118Z" fill="#8B8A8A"/>
<path d="M100.329 35.5264C100.329 35.8808 100.062 36.1466 99.6633 36.1466C99.2641 36.1466 98.998 35.8808 98.998 35.5264C98.998 35.172 99.2641 34.9062 99.6633 34.9062C100.062 34.9062 100.284 35.172 100.329 35.5264ZM99.0423 41.5066V36.8554H100.24V41.5066H99.0423Z" fill="#8B8A8A"/>
<path d="M102.901 38.2294C102.901 37.6978 102.901 37.2549 102.857 36.8562H103.877L103.921 37.5649H103.966C104.187 37.2106 104.675 36.7676 105.474 36.7676C106.272 36.7676 107.115 37.2992 107.115 38.761V41.5517H105.917V38.8939C105.917 38.2294 105.651 37.6978 105.03 37.6978C104.542 37.6978 104.232 38.0522 104.099 38.4066C104.054 38.4952 104.054 38.6724 104.054 38.8053V41.5517H102.901V38.2294Z" fill="#8B8A8A"/>
<path d="M110.397 36.8555L111.151 39.2033C111.284 39.6019 111.373 40.0006 111.461 40.355H111.506C111.595 39.9563 111.683 39.6019 111.816 39.2033L112.57 36.8555H113.812L112.038 41.5067H110.885L109.111 36.8555H110.397Z" fill="#8B8A8A"/>
<path d="M120.244 39.1591C120.244 40.8867 119.046 41.6398 117.848 41.6398C116.518 41.6398 115.498 40.7095 115.498 39.2477C115.498 37.6973 116.518 36.767 117.937 36.767C119.312 36.7227 120.244 37.7416 120.244 39.1591ZM116.74 39.2034C116.74 40.0894 117.183 40.7981 117.893 40.7981C118.558 40.7981 119.046 40.1337 119.046 39.2034C119.046 38.4946 118.736 37.653 117.893 37.653C117.05 37.6087 116.74 38.406 116.74 39.2034Z" fill="#8B8A8A"/>
<path d="M123.881 35.5264C123.881 35.8808 123.614 36.1466 123.215 36.1466C122.816 36.1466 122.55 35.8808 122.55 35.5264C122.55 35.172 122.816 34.9062 123.215 34.9062C123.614 34.9062 123.881 35.172 123.881 35.5264ZM122.639 41.5066V36.8554H123.836V41.5066H122.639Z" fill="#8B8A8A"/>
<path d="M129.913 41.3739C129.647 41.5068 129.159 41.5954 128.582 41.5954C127.118 41.5954 126.187 40.6652 126.187 39.2033C126.187 37.7858 127.163 36.7227 128.804 36.7227C129.247 36.7227 129.691 36.8113 129.957 36.9441L129.735 37.8301C129.558 37.7415 129.247 37.6529 128.848 37.6529C127.961 37.6529 127.429 38.3174 127.429 39.159C127.429 40.1336 128.05 40.6652 128.848 40.6652C129.247 40.6652 129.558 40.5766 129.78 40.488L129.913 41.3739Z" fill="#8B8A8A"/>
<path d="M133.461 35.5264C133.461 35.8808 133.195 36.1466 132.796 36.1466C132.396 36.1466 132.13 35.8808 132.13 35.5264C132.13 35.172 132.396 34.9062 132.796 34.9062C133.195 34.9062 133.417 35.172 133.461 35.5264ZM132.175 41.5066V36.8554H133.372V41.5066H132.175Z" fill="#8B8A8A"/>
<path d="M136.034 38.2294C136.034 37.6978 136.034 37.2549 135.989 36.8562H137.009L137.054 37.5649H137.098C137.32 37.2106 137.808 36.7676 138.606 36.7676C139.404 36.7676 140.247 37.2992 140.247 38.761V41.5517H139.05V38.8939C139.05 38.2294 138.783 37.6978 138.163 37.6978C137.675 37.6978 137.364 38.0522 137.231 38.4066C137.187 38.4952 137.187 38.6724 137.187 38.8053V41.5517H135.989V38.2294H136.034Z" fill="#8B8A8A"/>
<path d="M147.211 36.8562C147.211 37.1663 147.166 37.5649 147.166 38.1851V40.843C147.166 41.8175 146.945 42.5263 146.457 42.9693C145.969 43.4123 145.303 43.5451 144.638 43.5451C144.062 43.5451 143.396 43.4123 142.997 43.1908L143.263 42.3048C143.574 42.482 144.062 42.6592 144.638 42.6592C145.392 42.6592 145.969 42.2605 145.969 41.2417V40.7987C145.703 41.1974 145.215 41.5074 144.594 41.5074C143.441 41.5074 142.598 40.5329 142.598 39.2483C142.598 37.6978 143.618 36.7676 144.727 36.7676C145.437 36.7676 145.88 37.122 146.102 37.4763L146.146 36.8562H147.211ZM145.969 38.7167C145.969 38.6281 145.969 38.4952 145.924 38.4066C145.791 37.9636 145.481 37.6535 144.949 37.6535C144.283 37.6535 143.795 38.2294 143.795 39.1597C143.795 39.957 144.195 40.5772 144.949 40.5772C145.392 40.5772 145.791 40.3114 145.924 39.8684C145.969 39.7355 145.969 39.6026 145.969 39.4254V38.7167Z" fill="#8B8A8A"/>
<path d="M153.154 40.4443C153.42 40.6215 153.953 40.7987 154.352 40.7987C154.884 40.7987 155.106 40.5772 155.106 40.2671C155.106 39.957 154.928 39.7798 154.352 39.6026C153.42 39.2926 153.065 38.8053 153.065 38.2294C153.065 37.3877 153.731 36.7676 154.84 36.7676C155.372 36.7676 155.815 36.9005 156.082 37.0334L155.86 37.875C155.638 37.7421 155.239 37.6092 154.84 37.6092C154.396 37.6092 154.174 37.8307 154.174 38.0965C154.174 38.4066 154.396 38.5395 154.973 38.761C155.815 39.0711 156.215 39.514 156.215 40.1785C156.215 41.0202 155.549 41.6403 154.307 41.6403C153.731 41.6403 153.243 41.5074 152.888 41.3303L153.154 40.4443Z" fill="#8B8A8A"/>
<path d="M163.089 39.1591C163.089 40.8867 161.892 41.6398 160.694 41.6398C159.364 41.6398 158.344 40.7095 158.344 39.2477C158.344 37.6973 159.364 36.767 160.783 36.767C162.158 36.7227 163.089 37.7416 163.089 39.1591ZM159.541 39.2034C159.541 40.0894 159.985 40.7981 160.694 40.7981C161.36 40.7981 161.848 40.1337 161.848 39.2034C161.848 38.4946 161.537 37.653 160.694 37.653C159.896 37.6087 159.541 38.406 159.541 39.2034Z" fill="#8B8A8A"/>
<path d="M165.44 34.7295H166.638V41.5514H165.44V34.7295Z" fill="#8B8A8A"/>
<path d="M173.513 40.1335C173.513 40.7094 173.513 41.1524 173.557 41.551H172.537L172.492 40.8423C172.271 41.1967 171.827 41.6396 170.984 41.6396C170.142 41.6396 169.343 41.1524 169.343 39.6019V36.8555H170.541V39.3804C170.541 40.1778 170.807 40.6651 171.428 40.6651C171.916 40.6651 172.226 40.3107 172.315 40.0449C172.359 39.9563 172.404 39.8234 172.404 39.6905V36.8555H173.601V40.1335H173.513Z" fill="#8B8A8A"/>
<path d="M177.549 35.5264V36.8553H178.658V37.7413H177.549V39.8233C177.549 40.3991 177.682 40.6649 178.17 40.6649C178.392 40.6649 178.525 40.6206 178.613 40.6206V41.5066C178.436 41.5952 178.125 41.6395 177.771 41.6395C177.327 41.6395 176.972 41.5066 176.75 41.2408C176.484 40.975 176.396 40.532 176.396 39.9562V37.7413H175.73V36.8553H176.396V35.7922L177.549 35.5264Z" fill="#8B8A8A"/>
<path d="M182.206 35.5264C182.206 35.8808 181.94 36.1466 181.541 36.1466C181.141 36.1466 180.875 35.8808 180.875 35.5264C180.875 35.172 181.141 34.9062 181.541 34.9062C181.94 34.9062 182.206 35.172 182.206 35.5264ZM180.964 41.5066V36.8554H182.162V41.5066H180.964Z" fill="#8B8A8A"/>
<path d="M189.258 39.1591C189.258 40.8867 188.061 41.6398 186.863 41.6398C185.532 41.6398 184.512 40.7095 184.512 39.2477C184.512 37.6973 185.532 36.767 186.952 36.767C188.327 36.7227 189.258 37.7416 189.258 39.1591ZM185.71 39.2034C185.71 40.0894 186.153 40.7981 186.863 40.7981C187.528 40.7981 188.016 40.1337 188.016 39.2034C188.016 38.4946 187.706 37.653 186.863 37.653C186.065 37.6087 185.71 38.406 185.71 39.2034Z" fill="#8B8A8A"/>
<path d="M191.609 38.2294C191.609 37.6978 191.609 37.2549 191.565 36.8562H192.585L192.629 37.5649H192.673C192.895 37.2106 193.383 36.7676 194.182 36.7676C194.98 36.7676 195.823 37.2992 195.823 38.761V41.5517H194.625V38.8939C194.625 38.2294 194.359 37.6978 193.738 37.6978C193.25 37.6978 192.94 38.0522 192.807 38.4066C192.762 38.4952 192.762 38.6724 192.762 38.8053V41.5517H191.609V38.2294Z" fill="#8B8A8A"/>
<path d="M38.6323 13.5116L35.1283 12.8028L32.5558 12.3156L31.3582 12.0498L27.8986 11.3853C26.8341 11.1638 25.814 11.8726 25.5922 12.9357C25.3704 13.9546 26.0801 15.0177 27.1446 15.1949L31.8018 16.1252L37.8782 17.3212C38.8984 17.5427 39.9185 16.8339 40.1403 15.8151C40.3621 14.7519 39.6524 13.7331 38.6323 13.5116Z" fill="#8B8A8A"/>
<path d="M22.2657 14.2205C23.3435 14.2205 24.2172 13.3478 24.2172 12.2714C24.2172 11.1949 23.3435 10.3223 22.2657 10.3223C21.1878 10.3223 20.3141 11.1949 20.3141 12.2714C20.3141 13.3478 21.1878 14.2205 22.2657 14.2205Z" fill="#8B8A8A"/>
<path d="M35.7493 21.3528L32.334 20.5555L29.7615 19.9353L28.564 19.6695L25.1043 18.8279C24.0842 18.6064 23.0197 19.2266 22.7536 20.2897C22.5318 21.3085 23.1528 22.3717 24.2173 22.6375L28.8301 23.7449L34.8179 25.1625C35.8823 25.4282 36.9025 24.7638 37.1686 23.7006C37.4347 22.6818 36.8138 21.6186 35.7493 21.3528Z" fill="#8B8A8A"/>
<path d="M19.4714 21.4412C20.5492 21.4412 21.423 20.5685 21.423 19.4921C21.423 18.4156 20.5492 17.543 19.4714 17.543C18.3936 17.543 17.5198 18.4156 17.5198 19.4921C17.5198 20.5685 18.3936 21.4412 19.4714 21.4412Z" fill="#8B8A8A"/>
<path d="M32.9994 29.0162L29.5841 28.1302L27.0116 27.4657L25.814 27.1557L22.3988 26.2697C21.3343 26.0039 20.2698 26.6684 20.0037 27.6872C19.7375 28.7504 20.4028 29.8135 21.423 30.0793L26.0358 31.2311L32.0236 32.7815C33.0437 33.0473 34.1526 32.4271 34.4187 31.3639C34.6404 30.3451 34.0195 29.2819 32.9994 29.0162Z" fill="#8B8A8A"/>
<path d="M16.8545 24.8962C15.7456 24.8519 14.8586 25.6936 14.7699 26.7567C14.7255 27.8199 15.5682 28.7501 16.6327 28.7944C17.6972 28.8387 18.6287 28.0414 18.673 26.9782C18.7174 25.8708 17.919 24.9848 16.8545 24.8962Z" fill="#8B8A8A"/>
<path d="M10.5119 27.3756C11.3103 27.3756 11.9756 26.8883 12.2417 26.2238L20.4028 4.73939L21.3786 4.91658L38.1888 8.28322L39.475 8.50471C39.342 7.88454 39.2533 7.26437 39.2533 6.5999C39.2533 5.89114 39.342 5.18237 39.5194 4.5622L38.6323 4.38501V4.34071L22.8423 1.23986L22.1326 1.10697L19.9593 0.663992C19.9593 0.663992 18.0964 0.353907 17.4311 1.99293L17.1206 2.79029L8.73776 24.8506C8.6934 25.0721 8.64905 25.2493 8.64905 25.4708C8.64905 26.5339 9.49177 27.3756 10.5119 27.3756Z" fill="#E95626"/>
<path d="M47.4142 14.7508C46.128 14.7508 44.9304 14.4408 43.8215 13.9092L41.1603 21.7499L40.0515 25.0722H40.0958C38.4547 29.8564 35.3056 38.3616 32.8661 40.4879C32.6887 40.6208 32.5556 40.7094 32.4226 40.798C28.7412 43.6773 26.4348 43.1014 26.4348 43.1014C22.0438 42.7914 22.0881 35.1721 22.0881 35.1721L0.265989 26.4455C-1.46381 36.5454 5.36669 38.4945 5.36669 38.4945L9.09242 40.1778L20.1365 45.1834C24.1284 47.1326 26.213 46.9997 26.213 46.9997C30.471 47.044 33.4871 44.8734 34.5959 43.8988C34.6403 43.8545 39.0313 41.4181 44.7973 22.813L47.5029 14.7951C47.5029 14.7508 47.4586 14.7508 47.4142 14.7508Z" fill="#E95626"/>
<path d="M47.3257 0C43.6886 0 40.7169 2.96795 40.7169 6.60038C40.7169 10.2328 43.6886 13.2008 47.3257 13.2008C50.9627 13.2008 53.9344 10.2328 53.9344 6.60038C53.9787 2.96795 51.007 0 47.3257 0ZM51.3175 5.80302L47.2369 9.87842C47.0595 10.0556 46.8378 10.1442 46.616 10.1442C46.3942 10.1442 46.1724 10.0556 45.995 9.87842L43.8217 7.75212C43.4669 7.39774 43.4669 6.86616 43.8217 6.55608C44.1765 6.2017 44.7088 6.2017 45.0192 6.55608L46.616 8.1508L50.12 4.65127C50.4748 4.29689 51.007 4.29689 51.3175 4.65127C51.6723 4.96136 51.6723 5.49293 51.3175 5.80302Z" fill="#E95626"/>
</g>
<defs>
<clipPath id="clip0_4521_6481">
<rect width="196" height="47" fill="white"/>
</clipPath>
</defs>
</svg>
