<svg width="19" height="18" viewBox="0 0 19 18" fill="none" xmlns="http://www.w3.org/2000/svg">
<path d="M11.165 16.223C10.28 16.223 9.0275 15.6005 8.0375 12.623L7.4975 11.003L5.8775 10.463C2.9075 9.47298 2.285 8.22048 2.285 7.33548C2.285 6.45798 2.9075 5.19798 5.8775 4.20048L12.245 2.07798C13.835 1.54548 15.1625 1.70298 15.98 2.51298C16.7975 3.32298 16.955 4.65798 16.4225 6.24798L14.3 12.6155C13.3025 15.6005 12.05 16.223 11.165 16.223ZM6.23 5.27298C4.145 5.97048 3.4025 6.79548 3.4025 7.33548C3.4025 7.87548 4.145 8.70048 6.23 9.39048L8.12 10.0205C8.285 10.073 8.42 10.208 8.4725 10.373L9.1025 12.263C9.7925 14.348 10.625 15.0905 11.165 15.0905C11.705 15.0905 12.53 14.348 13.2275 12.263L15.35 5.89548C15.7325 4.74048 15.665 3.79548 15.1775 3.30798C14.69 2.82048 13.745 2.76048 12.5975 3.14298L6.23 5.27298Z" fill="#242E37"/>
<path d="M8.0825 10.8C7.94 10.8 7.7975 10.7475 7.685 10.635C7.4675 10.4175 7.4675 10.0575 7.685 9.84L10.37 7.1475C10.5875 6.93 10.9475 6.93 11.165 7.1475C11.3825 7.365 11.3825 7.725 11.165 7.9425L8.48 10.635C8.375 10.7475 8.225 10.8 8.0825 10.8Z" fill="#242E37"/>
</svg>
