<svg width="196" height="47" viewBox="0 0 196 47" fill="none" xmlns="http://www.w3.org/2000/svg">
<g clip-path="url(#clip0_4570_4489)">
<path d="M70.2568 19.5353H63.6924V23.7436H71.0108V27.0659H59.6118V9.21387H70.6116V12.5362H63.648V16.2572H70.2124V19.5353H70.2568Z" fill="#D4D5D4"/>
<path d="M80.9904 27.0663L80.7243 25.7374H80.6356C79.8372 26.8006 78.5066 27.3321 76.9542 27.3321C74.3373 27.3321 72.7849 25.4273 72.7849 23.3896C72.7849 20.023 75.801 18.4283 80.3694 18.4283V18.2511C80.3694 17.5423 80.0146 16.5678 78.0187 16.5678C76.6881 16.5678 75.3131 17.0107 74.426 17.5423L73.672 14.973C74.5591 14.4858 76.3332 13.8213 78.684 13.8213C82.9863 13.8213 84.3613 16.3463 84.3613 19.4028V23.9212C84.3613 25.1615 84.4056 26.3576 84.5387 27.0663H80.9904ZM80.5025 20.9532C78.3735 20.9089 76.7324 21.4405 76.7324 22.9909C76.7324 24.0098 77.4421 24.5414 78.3292 24.5414C79.3493 24.5414 80.1477 23.8769 80.4138 23.0795C80.4581 22.858 80.5025 22.6366 80.5025 22.3708V20.9532Z" fill="#D4D5D4"/>
<path d="M87.5546 23.5222C88.3086 23.9651 89.8167 24.4967 91.0142 24.4967C92.2118 24.4967 92.744 24.0537 92.744 23.4336C92.744 22.7691 92.3449 22.459 90.8368 21.9717C88.1756 21.0858 87.1111 19.624 87.1554 18.0735C87.1554 15.6814 89.2401 13.8652 92.4336 13.8652C93.9416 13.8652 95.2722 14.2196 96.0706 14.6183L95.3609 17.3648C94.7843 17.0547 93.6755 16.6117 92.5666 16.6117C91.5908 16.6117 91.0142 17.0104 91.0142 17.6748C91.0142 18.295 91.5021 18.6051 93.0989 19.1367C95.5383 19.9783 96.6028 21.2187 96.6028 23.1235C96.6028 25.5156 94.6956 27.2875 91.0142 27.2875C89.3288 27.2875 87.8208 26.9331 86.845 26.4015L87.5546 23.5222Z" fill="#D4D5D4"/>
<path d="M102.103 14.1312L104.054 20.4658C104.276 21.2189 104.542 22.1934 104.675 22.8579H104.764C104.941 22.1491 105.163 21.1746 105.341 20.4658L106.937 14.1312H111.24L108.224 22.6364C106.361 27.7749 105.119 29.8126 103.655 31.1416C102.236 32.3376 100.772 32.7806 99.752 32.9135L98.9093 29.4583C99.3972 29.3697 100.063 29.1482 100.639 28.7495C101.26 28.4394 101.925 27.8192 102.325 27.1548C102.458 26.9776 102.546 26.8004 102.546 26.5789C102.546 26.446 102.502 26.2245 102.369 25.9144L97.623 14.0869H102.103V14.1312Z" fill="#D4D5D4"/>
<path d="M117.095 9.21387V27.0216H113.058V9.21387H117.095Z" fill="#F24E1E"/>
<path d="M120.465 18.2511C120.465 16.6564 120.421 15.2831 120.377 14.1314H123.881L124.058 15.9033H124.147C124.679 15.1059 126.01 13.8213 128.139 13.8213C130.8 13.8213 132.751 15.5489 132.751 19.3585V27.022H128.715V19.8901C128.715 18.2068 128.139 17.0993 126.675 17.0993C125.566 17.0993 124.901 17.8524 124.635 18.6055C124.546 18.8269 124.457 19.2256 124.457 19.6243V27.0663H120.421V18.2511H120.465Z" fill="#F24E1E"/>
<path d="M138.961 14.1309L140.691 20.1111C141.001 21.1742 141.267 22.2374 141.445 23.2562H141.533C141.755 22.1931 141.977 21.2185 142.243 20.1111L143.929 14.1309H148.142L143.308 27.0658H139.271L134.57 14.1309H138.961Z" fill="#F24E1E"/>
<path d="M162.779 20.4217C162.779 25.1615 159.408 27.3321 155.948 27.3321C152.178 27.3321 149.251 24.8514 149.251 20.6875C149.251 16.5235 152.001 13.8213 156.17 13.8213C160.118 13.8213 162.779 16.5678 162.779 20.4217ZM153.42 20.5546C153.42 22.7695 154.352 24.4528 156.081 24.4528C157.634 24.4528 158.654 22.9023 158.654 20.5546C158.654 18.6055 157.9 16.6564 156.081 16.6564C154.13 16.7006 153.42 18.6498 153.42 20.5546Z" fill="#F24E1E"/>
<path d="M169.432 10.5426C169.432 11.65 168.589 12.536 167.259 12.536C165.972 12.536 165.13 11.65 165.174 10.5426C165.13 9.39084 165.972 8.50488 167.303 8.50488C168.589 8.50488 169.388 9.34654 169.432 10.5426ZM165.263 27.0657V14.1307H169.299V27.0657H165.263Z" fill="#F24E1E"/>
<path d="M182.25 26.712C181.541 27.022 180.166 27.2878 178.658 27.2878C174.489 27.2878 171.783 24.7629 171.783 20.6875C171.783 16.9221 174.355 13.8213 179.19 13.8213C180.255 13.8213 181.408 13.9985 182.25 14.3086L181.63 17.2765C181.142 17.055 180.432 16.8778 179.367 16.8778C177.238 16.8778 175.864 18.384 175.908 20.5103C175.908 22.9023 177.505 24.1427 179.456 24.1427C180.388 24.1427 181.142 23.9655 181.763 23.744L182.25 26.712Z" fill="#F24E1E"/>
<path d="M187.573 21.8829C187.706 23.5662 189.347 24.3193 191.21 24.3193C192.585 24.3193 193.694 24.1421 194.803 23.7877L195.335 26.4898C194.004 27.0214 192.407 27.2872 190.633 27.2872C186.242 27.2872 183.714 24.7622 183.714 20.6868C183.714 17.4088 185.754 13.7764 190.234 13.7764C194.403 13.7764 196 17.0101 196 20.2439C196 20.9526 195.911 21.5285 195.867 21.8386H187.573V21.8829ZM192.274 19.1364C192.274 18.1619 191.831 16.5228 190.012 16.5228C188.327 16.5228 187.617 18.0733 187.529 19.1364H192.274Z" fill="#F24E1E"/>
<path d="M65.4222 38.2289C65.4222 40.3995 64.0916 41.6398 62.3174 41.6398C60.4989 41.6398 59.3457 40.2666 59.3457 38.3618C59.3457 36.3684 60.5876 34.9952 62.4061 34.9952C64.269 34.9509 65.4222 36.3684 65.4222 38.2289ZM60.5876 38.3175C60.5876 39.6464 61.2529 40.6653 62.3618 40.6653C63.515 40.6653 64.1359 39.6021 64.1359 38.2732C64.1359 37.0772 63.515 35.9254 62.3618 35.9254C61.2086 35.8811 60.5876 36.9886 60.5876 38.3175Z" fill="#8B8A8A"/>
<path d="M67.8173 38.2294C67.8173 37.6978 67.8173 37.2549 67.7729 36.8562H68.7931L68.8374 37.5649H68.8818C69.1036 37.2106 69.5915 36.7676 70.3898 36.7676C71.1882 36.7676 72.0309 37.2992 72.0309 38.761V41.5517H70.8334V38.8939C70.8334 38.2294 70.5672 37.6978 69.9463 37.6978C69.4584 37.6978 69.1479 38.0522 69.0149 38.4066C68.9705 38.4952 68.9705 38.6724 68.9705 38.8053V41.5517H67.7729V38.2294H67.8173Z" fill="#8B8A8A"/>
<path d="M74.6921 34.7295H75.8897V41.5514H74.6921V34.7295Z" fill="#8B8A8A"/>
<path d="M79.8372 35.5264C79.8372 35.8808 79.5711 36.1466 79.1719 36.1466C78.7727 36.1466 78.5066 35.8808 78.5066 35.5264C78.5066 35.172 78.7727 34.9062 79.1719 34.9062C79.5711 34.9062 79.7929 35.172 79.8372 35.5264ZM78.5509 41.5066V36.8554H79.7485V41.5066H78.5509Z" fill="#8B8A8A"/>
<path d="M82.4098 38.2294C82.4098 37.6978 82.4098 37.2549 82.3655 36.8562H83.3856L83.43 37.5649H83.4743C83.6961 37.2106 84.184 36.7676 84.9824 36.7676C85.7807 36.7676 86.6235 37.2992 86.6235 38.761V41.5517H85.4259V38.8939C85.4259 38.2294 85.1598 37.6978 84.5388 37.6978C84.0509 37.6978 83.7405 38.0522 83.6074 38.4066C83.563 38.4952 83.563 38.6724 83.563 38.8053V41.5517H82.3655V38.2294H82.4098Z" fill="#8B8A8A"/>
<path d="M90.1273 39.5138C90.1717 40.3554 90.837 40.7098 91.5466 40.7098C92.0789 40.7098 92.4781 40.6212 92.8329 40.4883L93.0103 41.2857C92.6111 41.4629 92.0345 41.5515 91.3692 41.5515C89.8612 41.5515 88.9741 40.6212 88.9741 39.2037C88.9741 37.9191 89.7725 36.6787 91.2362 36.6787C92.7442 36.6787 93.2321 37.9191 93.2321 38.9379C93.2321 39.1594 93.2321 39.3366 93.1877 39.4252H90.1273V39.5138ZM92.212 38.6721C92.212 38.2291 92.0345 37.5204 91.2362 37.5204C90.5265 37.5204 90.216 38.1848 90.1717 38.6721H92.212Z" fill="#8B8A8A"/>
<path d="M100.329 35.5264C100.329 35.8808 100.063 36.1466 99.6634 36.1466C99.2642 36.1466 98.998 35.8808 98.998 35.5264C98.998 35.172 99.2642 34.9062 99.6634 34.9062C100.063 34.9062 100.284 35.172 100.329 35.5264ZM99.0424 41.5066V36.8554H100.24V41.5066H99.0424Z" fill="#8B8A8A"/>
<path d="M102.901 38.2294C102.901 37.6978 102.901 37.2549 102.857 36.8562H103.877L103.921 37.5649H103.966C104.188 37.2106 104.675 36.7676 105.474 36.7676C106.272 36.7676 107.115 37.2992 107.115 38.761V41.5517H105.917V38.8939C105.917 38.2294 105.651 37.6978 105.03 37.6978C104.542 37.6978 104.232 38.0522 104.099 38.4066C104.054 38.4952 104.054 38.6724 104.054 38.8053V41.5517H102.901V38.2294Z" fill="#8B8A8A"/>
<path d="M110.397 36.8555L111.151 39.2033C111.284 39.6019 111.373 40.0006 111.462 40.355H111.506C111.595 39.9563 111.683 39.6019 111.816 39.2033L112.57 36.8555H113.812L112.038 41.5067H110.885L109.111 36.8555H110.397Z" fill="#8B8A8A"/>
<path d="M120.244 39.1591C120.244 40.8867 119.046 41.6398 117.849 41.6398C116.518 41.6398 115.498 40.7095 115.498 39.2477C115.498 37.6973 116.518 36.767 117.937 36.767C119.312 36.7227 120.244 37.7416 120.244 39.1591ZM116.74 39.2034C116.74 40.0894 117.183 40.7981 117.893 40.7981C118.558 40.7981 119.046 40.1337 119.046 39.2034C119.046 38.4946 118.736 37.653 117.893 37.653C117.05 37.6087 116.74 38.406 116.74 39.2034Z" fill="#8B8A8A"/>
<path d="M123.881 35.5264C123.881 35.8808 123.615 36.1466 123.215 36.1466C122.816 36.1466 122.55 35.8808 122.55 35.5264C122.55 35.172 122.816 34.9062 123.215 34.9062C123.615 34.9062 123.881 35.172 123.881 35.5264ZM122.639 41.5066V36.8554H123.836V41.5066H122.639Z" fill="#8B8A8A"/>
<path d="M129.913 41.3739C129.647 41.5068 129.159 41.5954 128.582 41.5954C127.118 41.5954 126.187 40.6652 126.187 39.2033C126.187 37.7858 127.163 36.7227 128.804 36.7227C129.247 36.7227 129.691 36.8113 129.957 36.9441L129.735 37.8301C129.558 37.7415 129.247 37.6529 128.848 37.6529C127.961 37.6529 127.429 38.3174 127.429 39.159C127.429 40.1336 128.05 40.6652 128.848 40.6652C129.247 40.6652 129.558 40.5766 129.78 40.488L129.913 41.3739Z" fill="#8B8A8A"/>
<path d="M133.461 35.5264C133.461 35.8808 133.195 36.1466 132.796 36.1466C132.397 36.1466 132.131 35.8808 132.131 35.5264C132.131 35.172 132.397 34.9062 132.796 34.9062C133.195 34.9062 133.417 35.172 133.461 35.5264ZM132.175 41.5066V36.8554H133.373V41.5066H132.175Z" fill="#8B8A8A"/>
<path d="M136.034 38.2294C136.034 37.6978 136.034 37.2549 135.989 36.8562H137.009L137.054 37.5649H137.098C137.32 37.2106 137.808 36.7676 138.606 36.7676C139.405 36.7676 140.247 37.2992 140.247 38.761V41.5517H139.05V38.8939C139.05 38.2294 138.784 37.6978 138.163 37.6978C137.675 37.6978 137.364 38.0522 137.231 38.4066C137.187 38.4952 137.187 38.6724 137.187 38.8053V41.5517H135.989V38.2294H136.034Z" fill="#8B8A8A"/>
<path d="M147.211 36.8562C147.211 37.1663 147.167 37.5649 147.167 38.1851V40.843C147.167 41.8175 146.945 42.5263 146.457 42.9693C145.969 43.4123 145.304 43.5451 144.638 43.5451C144.062 43.5451 143.397 43.4123 142.997 43.1908L143.263 42.3048C143.574 42.482 144.062 42.6592 144.638 42.6592C145.392 42.6592 145.969 42.2605 145.969 41.2417V40.7987C145.703 41.1974 145.215 41.5074 144.594 41.5074C143.441 41.5074 142.598 40.5329 142.598 39.2483C142.598 37.6978 143.618 36.7676 144.727 36.7676C145.437 36.7676 145.88 37.122 146.102 37.4763L146.146 36.8562H147.211ZM145.969 38.7167C145.969 38.6281 145.969 38.4952 145.925 38.4066C145.792 37.9636 145.481 37.6535 144.949 37.6535C144.284 37.6535 143.796 38.2294 143.796 39.1597C143.796 39.957 144.195 40.5772 144.949 40.5772C145.392 40.5772 145.792 40.3114 145.925 39.8684C145.969 39.7355 145.969 39.6026 145.969 39.4254V38.7167Z" fill="#8B8A8A"/>
<path d="M153.154 40.4443C153.42 40.6215 153.953 40.7987 154.352 40.7987C154.884 40.7987 155.106 40.5772 155.106 40.2671C155.106 39.957 154.928 39.7798 154.352 39.6026C153.42 39.2926 153.066 38.8053 153.066 38.2294C153.066 37.3877 153.731 36.7676 154.84 36.7676C155.372 36.7676 155.816 36.9005 156.082 37.0334L155.86 37.875C155.638 37.7421 155.239 37.6092 154.84 37.6092C154.396 37.6092 154.174 37.8307 154.174 38.0965C154.174 38.4066 154.396 38.5395 154.973 38.761C155.816 39.0711 156.215 39.514 156.215 40.1785C156.215 41.0202 155.549 41.6403 154.308 41.6403C153.731 41.6403 153.243 41.5074 152.888 41.3303L153.154 40.4443Z" fill="#8B8A8A"/>
<path d="M163.09 39.1591C163.09 40.8867 161.892 41.6398 160.695 41.6398C159.364 41.6398 158.344 40.7095 158.344 39.2477C158.344 37.6973 159.364 36.767 160.783 36.767C162.158 36.7227 163.09 37.7416 163.09 39.1591ZM159.541 39.2034C159.541 40.0894 159.985 40.7981 160.695 40.7981C161.36 40.7981 161.848 40.1337 161.848 39.2034C161.848 38.4946 161.537 37.653 160.695 37.653C159.896 37.6087 159.541 38.406 159.541 39.2034Z" fill="#8B8A8A"/>
<path d="M165.44 34.7295H166.638V41.5514H165.44V34.7295Z" fill="#8B8A8A"/>
<path d="M173.513 40.1335C173.513 40.7094 173.513 41.1524 173.557 41.551H172.537L172.493 40.8423C172.271 41.1967 171.827 41.6396 170.985 41.6396C170.142 41.6396 169.344 41.1524 169.344 39.6019V36.8555H170.541V39.3804C170.541 40.1778 170.807 40.6651 171.428 40.6651C171.916 40.6651 172.227 40.3107 172.315 40.0449C172.36 39.9563 172.404 39.8234 172.404 39.6905V36.8555H173.601V40.1335H173.513Z" fill="#8B8A8A"/>
<path d="M177.549 35.5264V36.8553H178.658V37.7413H177.549V39.8233C177.549 40.3991 177.682 40.6649 178.17 40.6649C178.392 40.6649 178.525 40.6206 178.613 40.6206V41.5066C178.436 41.5952 178.126 41.6395 177.771 41.6395C177.327 41.6395 176.972 41.5066 176.751 41.2408C176.484 40.975 176.396 40.532 176.396 39.9562V37.7413H175.73V36.8553H176.396V35.7922L177.549 35.5264Z" fill="#8B8A8A"/>
<path d="M182.206 35.5264C182.206 35.8808 181.94 36.1466 181.541 36.1466C181.142 36.1466 180.875 35.8808 180.875 35.5264C180.875 35.172 181.142 34.9062 181.541 34.9062C181.94 34.9062 182.206 35.172 182.206 35.5264ZM180.964 41.5066V36.8554H182.162V41.5066H180.964Z" fill="#8B8A8A"/>
<path d="M189.258 39.1591C189.258 40.8867 188.061 41.6398 186.863 41.6398C185.533 41.6398 184.512 40.7095 184.512 39.2477C184.512 37.6973 185.533 36.767 186.952 36.767C188.327 36.7227 189.258 37.7416 189.258 39.1591ZM185.71 39.2034C185.71 40.0894 186.154 40.7981 186.863 40.7981C187.529 40.7981 188.016 40.1337 188.016 39.2034C188.016 38.4946 187.706 37.653 186.863 37.653C186.065 37.6087 185.71 38.406 185.71 39.2034Z" fill="#8B8A8A"/>
<path d="M191.609 38.2294C191.609 37.6978 191.609 37.2549 191.565 36.8562H192.585L192.629 37.5649H192.674C192.895 37.2106 193.383 36.7676 194.182 36.7676C194.98 36.7676 195.823 37.2992 195.823 38.761V41.5517H194.625V38.8939C194.625 38.2294 194.359 37.6978 193.738 37.6978C193.25 37.6978 192.94 38.0522 192.807 38.4066C192.762 38.4952 192.762 38.6724 192.762 38.8053V41.5517H191.609V38.2294Z" fill="#8B8A8A"/>
<path d="M38.6324 13.5116L35.1285 12.8028L32.556 12.3156L31.3584 12.0498L27.8988 11.3853C26.8343 11.1638 25.8142 11.8726 25.5924 12.9357C25.3706 13.9546 26.0803 15.0177 27.1448 15.1949L31.8019 16.1252L37.8784 17.3212C38.8986 17.5427 39.9187 16.8339 40.1405 15.8151C40.3622 14.7519 39.6526 13.7331 38.6324 13.5116Z" fill="#8B8A8A"/>
<path d="M22.2658 14.2205C23.3436 14.2205 24.2174 13.3478 24.2174 12.2714C24.2174 11.1949 23.3436 10.3223 22.2658 10.3223C21.188 10.3223 20.3142 11.1949 20.3142 12.2714C20.3142 13.3478 21.188 14.2205 22.2658 14.2205Z" fill="#8B8A8A"/>
<path d="M35.7494 21.3528L32.3342 20.5555L29.7616 19.9353L28.5641 19.6695L25.1045 18.8279C24.0843 18.6064 23.0198 19.2266 22.7537 20.2897C22.5319 21.3085 23.1529 22.3717 24.2174 22.6375L28.8302 23.7449L34.818 25.1625C35.8825 25.4282 36.9026 24.7638 37.1687 23.7006C37.4349 22.6818 36.8139 21.6186 35.7494 21.3528Z" fill="#8B8A8A"/>
<path d="M19.4716 21.4412C20.5494 21.4412 21.4232 20.5685 21.4232 19.4921C21.4232 18.4156 20.5494 17.543 19.4716 17.543C18.3938 17.543 17.52 18.4156 17.52 19.4921C17.52 20.5685 18.3938 21.4412 19.4716 21.4412Z" fill="#8B8A8A"/>
<path d="M32.9994 29.0162L29.5841 28.1302L27.0116 27.4657L25.814 27.1557L22.3988 26.2697C21.3343 26.0039 20.2698 26.6684 20.0037 27.6872C19.7375 28.7504 20.4028 29.8135 21.423 30.0793L26.0358 31.2311L32.0236 32.7815C33.0437 33.0473 34.1526 32.4271 34.4187 31.3639C34.6404 30.3451 34.0195 29.2819 32.9994 29.0162Z" fill="#8B8A8A"/>
<path d="M16.8546 24.8962C15.7458 24.8519 14.8587 25.6936 14.77 26.7567C14.7256 27.8199 15.5684 28.7501 16.6328 28.7944C17.6973 28.8387 18.6288 28.0414 18.6731 26.9782C18.7175 25.8708 17.9191 24.9848 16.8546 24.8962Z" fill="#8B8A8A"/>
<path d="M10.512 27.3756C11.3104 27.3756 11.9757 26.8883 12.2418 26.2238L20.403 4.73939L21.3787 4.91658L38.1889 8.28322L39.4751 8.50471C39.3421 7.88454 39.2534 7.26437 39.2534 6.5999C39.2534 5.89114 39.3421 5.18237 39.5195 4.5622L38.6324 4.38501V4.34071L22.8424 1.23986L22.1328 1.10697L19.9594 0.663992C19.9594 0.663992 18.0966 0.353907 17.4312 1.99293L17.1208 2.79029L8.73788 24.8506C8.69352 25.0721 8.64917 25.2493 8.64917 25.4708C8.64917 26.5339 9.49189 27.3756 10.512 27.3756Z" fill="#F24E1E"/>
<path d="M47.4143 14.7508C46.128 14.7508 44.9305 14.4408 43.8216 13.9092L41.1604 21.7499L40.0515 25.0722H40.0959C38.4548 29.8564 35.3057 38.3616 32.8662 40.4879C32.6888 40.6208 32.5557 40.7094 32.4226 40.798C28.7413 43.6773 26.4349 43.1014 26.4349 43.1014C22.0438 42.7914 22.0882 35.1721 22.0882 35.1721L0.26605 26.4455C-1.46375 36.5454 5.36675 38.4945 5.36675 38.4945L9.09248 40.1778L20.1366 45.1834C24.1285 47.1326 26.2131 46.9997 26.2131 46.9997C30.4711 47.044 33.4871 44.8734 34.596 43.8988C34.6403 43.8545 39.0314 41.4181 44.7974 22.813L47.503 14.7951C47.503 14.7508 47.4586 14.7508 47.4143 14.7508Z" fill="#F24E1E"/>
<path d="M47.3258 0C43.6888 0 40.717 2.96795 40.717 6.60038C40.717 10.2328 43.6888 13.2008 47.3258 13.2008C50.9628 13.2008 53.9345 10.2328 53.9345 6.60038C53.9789 2.96795 51.0072 0 47.3258 0ZM51.3176 5.80302L47.2371 9.87842C47.0596 10.0556 46.8379 10.1442 46.6161 10.1442C46.3943 10.1442 46.1726 10.0556 45.9952 9.87842L43.8218 7.75212C43.467 7.39774 43.467 6.86616 43.8218 6.55608C44.1766 6.2017 44.7089 6.2017 45.0194 6.55608L46.6161 8.1508L50.1201 4.65127C50.4749 4.29689 51.0071 4.29689 51.3176 4.65127C51.6725 4.96136 51.6725 5.49293 51.3176 5.80302Z" fill="#F24E1E"/>
</g>
<defs>
<clipPath id="clip0_4570_4489">
<rect width="196" height="47" fill="white"/>
</clipPath>
</defs>
</svg>
