<svg width="24" height="24" viewBox="0 0 24 24" fill="none" xmlns="http://www.w3.org/2000/svg">
<g clip-path="url(#clip0_4307_3393)">
<path d="M0.857178 21.4289V2.57171C0.857178 2.11705 1.03779 1.68102 1.35928 1.35952C1.68077 1.03803 2.11681 0.857422 2.57146 0.857422H21.4286C21.8833 0.857422 22.3193 1.03803 22.6408 1.35952C22.9623 1.68102 23.1429 2.11705 23.1429 2.57171V21.4289C23.1429 21.8835 22.9623 22.3195 22.6408 22.641C22.3193 22.9625 21.8833 23.1431 21.4286 23.1431H16.2857V15.0174H17.5029C17.7802 15.0174 18.0462 14.9072 18.2423 14.7111C18.4384 14.515 18.5486 14.249 18.5486 13.9717V12.6517C18.5482 12.3745 18.4378 12.1088 18.2418 11.9128C18.0458 11.7168 17.7801 11.6064 17.5029 11.606H16.3543V9.99456C16.3543 8.55456 17.0057 8.55456 17.6572 8.55456H18.4972C18.6351 8.56025 18.7727 8.53556 18.9001 8.48224C19.0274 8.42892 19.1415 8.34827 19.2343 8.24599C19.3339 8.15115 19.4128 8.03667 19.4659 7.90979C19.519 7.7829 19.5452 7.64638 19.5429 7.50885V6.24028C19.5479 6.10057 19.5253 5.96125 19.4762 5.83034C19.4271 5.69944 19.3527 5.57954 19.257 5.47755C19.1614 5.37556 19.0466 5.29351 18.9191 5.23611C18.7916 5.17872 18.6541 5.14712 18.5143 5.14314H16.5429C15.9677 5.12151 15.3946 5.22501 14.8633 5.44649C14.3319 5.66797 13.855 6.00215 13.4655 6.42594C13.0759 6.84973 12.783 7.35304 12.6069 7.9011C12.4309 8.44916 12.3759 9.0289 12.4457 9.60028V11.606H11.3486C11.2098 11.6037 11.072 11.6291 10.9432 11.6806C10.8143 11.7322 10.697 11.8088 10.5981 11.9061C10.4991 12.0035 10.4206 12.1195 10.367 12.2475C10.3133 12.3755 10.2857 12.5129 10.2857 12.6517V13.9717C10.2857 14.1105 10.3133 14.2479 10.367 14.3759C10.4206 14.5039 10.4991 14.6199 10.5981 14.7173C10.697 14.8146 10.8143 14.8913 10.9432 14.9428C11.072 14.9943 11.2098 15.0197 11.3486 15.0174H12.4457V23.1431H2.57146C2.11681 23.1431 1.68077 22.9625 1.35928 22.641C1.03779 22.3195 0.857178 21.8835 0.857178 21.4289Z" stroke="#33414E" stroke-width="1.5" stroke-linecap="round" stroke-linejoin="round"/>
</g>
<defs>
<clipPath id="clip0_4307_3393">
<rect width="24" height="24" fill="white"/>
</clipPath>
</defs>
</svg>
