<svg width="19" height="18" viewBox="0 0 19 18" fill="none" xmlns="http://www.w3.org/2000/svg">
<path d="M11 12.6825C10.8575 12.6825 10.715 12.63 10.6025 12.5175L7.63249 9.54748C7.41499 9.32998 7.41499 8.96998 7.63249 8.75248C7.84999 8.53498 8.20998 8.53498 8.42748 8.75248L11.3975 11.7225C11.615 11.94 11.615 12.3 11.3975 12.5175C11.285 12.6225 11.1425 12.6825 11 12.6825Z" fill="#33414E"/>
<path d="M7.99999 12.7125C7.85749 12.7125 7.71499 12.66 7.60249 12.5475C7.38499 12.33 7.38499 11.97 7.60249 11.7525L10.5725 8.78251C10.79 8.56501 11.15 8.56501 11.3675 8.78251C11.585 9.00001 11.585 9.36001 11.3675 9.57751L8.39749 12.5475C8.28499 12.66 8.14249 12.7125 7.99999 12.7125Z" fill="#33414E"/>
<path d="M11 5.0625H8C7.28 5.0625 5.9375 5.0625 5.9375 3C5.9375 0.9375 7.28 0.9375 8 0.9375H11C11.72 0.9375 13.0625 0.9375 13.0625 3C13.0625 3.72 13.0625 5.0625 11 5.0625ZM8 2.0625C7.2575 2.0625 7.0625 2.0625 7.0625 3C7.0625 3.9375 7.2575 3.9375 8 3.9375H11C11.9375 3.9375 11.9375 3.7425 11.9375 3C11.9375 2.0625 11.7425 2.0625 11 2.0625H8Z" fill="#33414E"/>
<path d="M11.75 17.0626H7.25C3.035 17.0626 2.1875 15.1276 2.1875 12.0001V7.50007C2.1875 4.08007 3.425 2.61757 6.47 2.46007C6.785 2.44507 7.0475 2.67757 7.0625 2.99257C7.0775 3.30757 6.8375 3.56257 6.53 3.57757C4.4 3.69757 3.3125 4.33507 3.3125 7.50007V12.0001C3.3125 14.7751 3.86 15.9376 7.25 15.9376H11.75C15.14 15.9376 15.6875 14.7751 15.6875 12.0001V7.50007C15.6875 4.33507 14.6 3.69757 12.47 3.57757C12.1625 3.56257 11.9225 3.29257 11.9375 2.98507C11.9525 2.67757 12.2225 2.43757 12.53 2.45257C15.575 2.61757 16.8125 4.08007 16.8125 7.49257V11.9926C16.8125 15.1276 15.965 17.0626 11.75 17.0626Z" fill="#33414E"/>
</svg>
