<svg width="20" height="20" viewBox="0 0 20 20" fill="none" xmlns="http://www.w3.org/2000/svg">
<path d="M12.5 10.7917H6.66663C6.32496 10.7917 6.04163 10.5084 6.04163 10.1667C6.04163 9.82508 6.32496 9.54175 6.66663 9.54175H12.5C12.8416 9.54175 13.125 9.82508 13.125 10.1667C13.125 10.5084 12.8416 10.7917 12.5 10.7917Z" fill="#5C6771"/>
<path d="M10.3166 14.125H6.66663C6.32496 14.125 6.04163 13.8417 6.04163 13.5C6.04163 13.1583 6.32496 12.875 6.66663 12.875H10.3166C10.6583 12.875 10.9416 13.1583 10.9416 13.5C10.9416 13.8417 10.6583 14.125 10.3166 14.125Z" fill="#5C6771"/>
<path d="M11.6666 5.62508H8.33329C7.53329 5.62508 6.04163 5.62508 6.04163 3.33341C6.04163 1.04175 7.53329 1.04175 8.33329 1.04175H11.6666C12.4666 1.04175 13.9583 1.04175 13.9583 3.33341C13.9583 4.13341 13.9583 5.62508 11.6666 5.62508ZM8.33329 2.29175C7.50829 2.29175 7.29163 2.29175 7.29163 3.33341C7.29163 4.37508 7.50829 4.37508 8.33329 4.37508H11.6666C12.7083 4.37508 12.7083 4.15841 12.7083 3.33341C12.7083 2.29175 12.4916 2.29175 11.6666 2.29175H8.33329Z" fill="#5C6771"/>
<path d="M12.5 18.9584H7.5C2.81667 18.9584 1.875 16.8084 1.875 13.3334V8.33344C1.875 4.53344 3.25 2.90844 6.63333 2.73344C6.96667 2.71677 7.275 2.97511 7.29167 3.32511C7.30833 3.67511 7.04167 3.95844 6.7 3.97511C4.33333 4.10844 3.125 4.81677 3.125 8.33344V13.3334C3.125 16.4168 3.73333 17.7084 7.5 17.7084H12.5C16.2667 17.7084 16.875 16.4168 16.875 13.3334V8.33344C16.875 4.81677 15.6667 4.10844 13.3 3.97511C12.9583 3.95844 12.6917 3.65844 12.7083 3.31677C12.725 2.97511 13.025 2.70844 13.3667 2.72511C16.75 2.90844 18.125 4.53344 18.125 8.32511V13.3251C18.125 16.8084 17.1833 18.9584 12.5 18.9584Z" fill="#5C6771"/>
</svg>
