<svg width="18" height="18" viewBox="0 0 18 18" fill="none" xmlns="http://www.w3.org/2000/svg">
<path d="M1 11.4255V6H1.96966L3.87049 9.63236H3.72427L5.6251 6H6.57937V11.4255H5.6328V7.50835H5.73284L4.10906 10.5789H3.47031L1.83113 7.50066H1.93887V11.4255H1Z" fill="#F24E1E"/>
<path d="M9.74183 11.5794C9.4494 11.5794 9.16979 11.5563 8.903 11.5101C8.63622 11.4639 8.38996 11.3972 8.16422 11.31C7.94361 11.2228 7.74865 11.1176 7.57935 10.9945L7.89487 10.1865C8.06417 10.3045 8.2463 10.4045 8.44126 10.4866C8.63622 10.5635 8.84144 10.6225 9.05692 10.6636C9.27753 10.6995 9.50583 10.7175 9.74183 10.7175C10.1317 10.7175 10.4191 10.6533 10.6037 10.5251C10.7936 10.3917 10.8885 10.2121 10.8885 9.98636C10.8885 9.86323 10.8603 9.76319 10.8038 9.68623C10.7474 9.60414 10.6525 9.53488 10.5191 9.47845C10.3908 9.42201 10.2215 9.37327 10.0112 9.33223L9.14157 9.16293C8.64391 9.06545 8.27709 8.89101 8.04109 8.63962C7.80509 8.3831 7.68708 8.05475 7.68708 7.65457C7.68708 7.32109 7.77943 7.03122 7.96413 6.78496C8.14883 6.53357 8.40278 6.34118 8.726 6.20778C9.05435 6.06926 9.43144 6 9.85727 6C10.1087 6 10.3498 6.02309 10.5807 6.06926C10.8115 6.11544 11.0244 6.1847 11.2194 6.27705C11.4144 6.36939 11.5862 6.4797 11.735 6.60796L11.4118 7.39292C11.1963 7.20822 10.9577 7.07483 10.6961 6.99274C10.4396 6.90553 10.1574 6.86192 9.84957 6.86192C9.61357 6.86192 9.40835 6.8927 9.23392 6.95427C9.06461 7.01583 8.93122 7.10561 8.83374 7.22361C8.74139 7.33648 8.69522 7.47244 8.69522 7.63148C8.69522 7.81618 8.75422 7.95983 8.87222 8.06244C8.99535 8.16505 9.20826 8.24714 9.51096 8.3087L10.3729 8.47801C10.8859 8.58062 11.2681 8.74992 11.5195 8.98592C11.7709 9.22193 11.8966 9.53488 11.8966 9.9248C11.8966 10.2531 11.8068 10.543 11.6273 10.7944C11.4528 11.0407 11.204 11.2331 10.8808 11.3716C10.5576 11.5101 10.1779 11.5794 9.74183 11.5794Z" fill="#F24E1E"/>
<path d="M14.7513 11.4255V6.85422H12.8967V6H17.6218V6.85422H15.7672V11.4255H14.7513Z" fill="#F24E1E"/>
</svg>
