<svg width="24" height="24" viewBox="0 0 24 24" fill="none" xmlns="http://www.w3.org/2000/svg">
<circle cx="12" cy="12" r="11.5" fill="white" stroke="#F24E1E"/>
<g clip-path="url(#clip0_4213_1868)">
<path d="M9.84619 9.75C9.84619 8.92266 10.5085 8.25 11.3231 8.25H12.0616C12.8762 8.25 13.5385 8.92266 13.5385 9.75V9.83438C13.5385 10.3453 13.2823 10.8211 12.86 11.0953L11.8862 11.7305C11.6003 11.9172 11.3651 12.1738 11.2022 12.4769C11.0393 12.7799 10.9539 13.1196 10.9539 13.4648V13.5C10.9539 13.9148 11.2839 14.25 11.6923 14.25C12.1008 14.25 12.4308 13.9148 12.4308 13.5V13.4672C12.4308 13.275 12.5277 13.0969 12.6846 12.9937L13.6585 12.3586C14.5031 11.8055 15.0154 10.8563 15.0154 9.83438V9.75C15.0154 8.09297 13.6931 6.75 12.0616 6.75H11.3231C9.69157 6.75 8.36926 8.09297 8.36926 9.75C8.36926 10.1648 8.69926 10.5 9.10772 10.5C9.51619 10.5 9.84619 10.1648 9.84619 9.75ZM11.6923 17.25C11.9372 17.25 12.1719 17.1512 12.3451 16.9754C12.5182 16.7996 12.6154 16.5611 12.6154 16.3125C12.6154 16.0639 12.5182 15.8254 12.3451 15.6496C12.1719 15.4738 11.9372 15.375 11.6923 15.375C11.4475 15.375 11.2127 15.4738 11.0396 15.6496C10.8665 15.8254 10.7693 16.0639 10.7693 16.3125C10.7693 16.5611 10.8665 16.7996 11.0396 16.9754C11.2127 17.1512 11.4475 17.25 11.6923 17.25Z" fill="#F24E1E"/>
</g>
<defs>
<clipPath id="clip0_4213_1868">
<rect width="7.38462" height="12" fill="white" transform="translate(8 6)"/>
</clipPath>
</defs>
</svg>
