<svg width="24" height="24" viewBox="0 0 24 24" fill="none" xmlns="http://www.w3.org/2000/svg">
<circle cx="12" cy="12" r="11.5" fill="#24262B" stroke="#F24E1E"/>
<g clip-path="url(#clip0_4253_3797)">
<path d="M9.84606 9.75C9.84606 8.92266 10.5084 8.25 11.323 8.25H12.0614C12.8761 8.25 13.5384 8.92266 13.5384 9.75V9.83438C13.5384 10.3453 13.2822 10.8211 12.8599 11.0953L11.8861 11.7305C11.6001 11.9172 11.3649 12.1738 11.202 12.4769C11.0392 12.7799 10.9538 13.1196 10.9538 13.4648V13.5C10.9538 13.9148 11.2838 14.25 11.6922 14.25C12.1007 14.25 12.4307 13.9148 12.4307 13.5V13.4672C12.4307 13.275 12.5276 13.0969 12.6845 12.9937L13.6584 12.3586C14.503 11.8055 15.0153 10.8563 15.0153 9.83438V9.75C15.0153 8.09297 13.693 6.75 12.0614 6.75H11.323C9.69145 6.75 8.36914 8.09297 8.36914 9.75C8.36914 10.1648 8.69914 10.5 9.1076 10.5C9.51606 10.5 9.84606 10.1648 9.84606 9.75ZM11.6922 17.25C11.937 17.25 12.1718 17.1512 12.3449 16.9754C12.518 16.7996 12.6153 16.5611 12.6153 16.3125C12.6153 16.0639 12.518 15.8254 12.3449 15.6496C12.1718 15.4738 11.937 15.375 11.6922 15.375C11.4474 15.375 11.2126 15.4738 11.0395 15.6496C10.8664 15.8254 10.7691 16.0639 10.7691 16.3125C10.7691 16.5611 10.8664 16.7996 11.0395 16.9754C11.2126 17.1512 11.4474 17.25 11.6922 17.25Z" fill="#F24E1E"/>
</g>
<defs>
<clipPath id="clip0_4253_3797">
<rect width="7.38462" height="12" fill="white" transform="translate(8 6)"/>
</clipPath>
</defs>
</svg>
