<svg width="24" height="24" viewBox="0 0 24 24" fill="none" xmlns="http://www.w3.org/2000/svg">
<circle cx="12" cy="12" r="11.5" fill="#24262B" stroke="#F24E1E"/>
<path d="M13.695 8.60514L14.4 10.0151C14.495 10.2101 14.75 10.3951 14.965 10.4351L16.24 10.6451C17.055 10.7801 17.245 11.3701 16.66 11.9601L15.665 12.9551C15.5 13.1201 15.405 13.4451 15.46 13.6801L15.745 14.9101C15.97 15.8801 15.45 16.2601 14.595 15.7501L13.4 15.0401C13.185 14.9101 12.825 14.9101 12.61 15.0401L11.415 15.7501C10.56 16.2551 10.04 15.8801 10.265 14.9101L10.55 13.6801C10.595 13.4401 10.5 13.1151 10.335 12.9501L9.33997 11.9551C8.75497 11.3701 8.94497 10.7801 9.75997 10.6401L11.035 10.4301C11.25 10.3951 11.505 10.2051 11.6 10.0101L12.305 8.60014C12.69 7.84014 13.31 7.84014 13.695 8.60514Z" fill="#F24E1E"/>
<path d="M10 8.875H7C6.795 8.875 6.625 8.705 6.625 8.5C6.625 8.295 6.795 8.125 7 8.125H10C10.205 8.125 10.375 8.295 10.375 8.5C10.375 8.705 10.205 8.875 10 8.875Z" fill="#F24E1E"/>
<path d="M8.5 15.875H7C6.795 15.875 6.625 15.705 6.625 15.5C6.625 15.295 6.795 15.125 7 15.125H8.5C8.705 15.125 8.875 15.295 8.875 15.5C8.875 15.705 8.705 15.875 8.5 15.875Z" fill="#F24E1E"/>
<path d="M7.5 12.375H7C6.795 12.375 6.625 12.205 6.625 12C6.625 11.795 6.795 11.625 7 11.625H7.5C7.705 11.625 7.875 11.795 7.875 12C7.875 12.205 7.705 12.375 7.5 12.375Z" fill="#F24E1E"/>
</svg>
