<svg width="24" height="24" viewBox="0 0 24 24" fill="none" xmlns="http://www.w3.org/2000/svg">
<path d="M14.568 5.01624C15.6374 6.08688 16.3067 7.49225 16.4639 8.99726C16.6212 10.5023 16.2569 12.0156 15.432 13.2842C15.576 13.4042 15.696 13.5362 15.864 13.6562C16.104 13.8482 16.428 14.0882 16.836 14.3642C17.244 14.6522 17.508 14.8322 17.628 14.9282C18.132 15.3002 18.504 15.6122 18.756 15.8642C19.14 16.2482 19.476 16.6442 19.764 17.0642C20.064 17.4842 20.292 17.8922 20.472 18.3122C20.64 18.7322 20.724 19.1282 20.688 19.5122C20.664 19.8962 20.52 20.2202 20.256 20.4842C19.992 20.7482 19.668 20.8922 19.284 20.9162C18.912 20.9402 18.504 20.8682 18.096 20.6882C17.676 20.5202 17.256 20.2802 16.848 19.9802C16.428 19.6922 16.032 19.3562 15.648 18.9722C15.396 18.7202 15.084 18.3482 14.724 17.8562C14.604 17.7002 14.424 17.4362 14.16 17.0642C13.896 16.6802 13.68 16.3802 13.488 16.1282C13.296 15.8882 13.14 15.7082 12.96 15.5282C11.7145 16.1804 10.2933 16.4181 8.90333 16.2065C7.51337 15.995 6.22719 15.3454 5.23203 14.3522C2.66403 11.7722 2.66403 7.58424 5.23203 5.01624C5.84478 4.40276 6.57244 3.91608 7.37341 3.58402C8.17439 3.25197 9.03296 3.08105 9.90003 3.08105C10.7671 3.08105 11.6257 3.25197 12.4266 3.58402C13.2276 3.91608 13.9553 4.40276 14.568 5.01624ZM12.876 12.6482C13.66 11.8586 14.0999 10.791 14.0999 9.67824C14.0999 8.56552 13.66 7.49792 12.876 6.70824C12.4864 6.31747 12.0235 6.00743 11.5139 5.79589C11.0042 5.58434 10.4578 5.47545 9.90603 5.47545C9.35422 5.47545 8.80783 5.58434 8.29818 5.79589C7.78853 6.00743 7.32564 6.31747 6.93603 6.70824C6.54526 7.09785 6.23522 7.56074 6.02368 8.07039C5.81213 8.58004 5.70324 9.12643 5.70324 9.67824C5.70324 10.2301 5.81213 10.7764 6.02368 11.2861C6.23522 11.7957 6.54526 12.2586 6.93603 12.6482C7.32564 13.039 7.78853 13.349 8.29818 13.5606C8.80783 13.7721 9.35422 13.881 9.90603 13.881C10.4578 13.881 11.0042 13.7721 11.5139 13.5606C12.0235 13.349 12.4864 13.039 12.876 12.6482Z" fill="white"/>
</svg>
