<svg width="19" height="18" viewBox="0 0 19 18" fill="none" xmlns="http://www.w3.org/2000/svg">
<path d="M10.1675 4.41016H4.33249C3.04999 4.41016 2 5.46015 2 6.74265V15.2627C2 16.3502 2.78 16.8151 3.7325 16.2826L6.67999 14.6401C6.99499 14.4676 7.505 14.4676 7.8125 14.6401L10.76 16.2826C11.7125 16.8151 12.4925 16.3502 12.4925 15.2627V6.74265C12.5 5.46015 11.45 4.41016 10.1675 4.41016Z" stroke="#33414E" stroke-width="1.5" stroke-linecap="round" stroke-linejoin="round"/>
<path d="M12.5 6.74265V15.2627C12.5 16.3502 11.72 16.8076 10.7675 16.2826L7.82001 14.6401C7.50501 14.4676 6.99499 14.4676 6.67999 14.6401L3.7325 16.2826C2.78 16.8076 2 16.3502 2 15.2627V6.74265C2 5.46015 3.04999 4.41016 4.33249 4.41016H10.1675C11.45 4.41016 12.5 5.46015 12.5 6.74265Z" stroke="#33414E" stroke-width="1.5" stroke-linecap="round" stroke-linejoin="round"/>
<path d="M17 3.83249V12.3525C17 13.44 16.22 13.8975 15.2675 13.3725L12.5 11.8275V6.74249C12.5 5.45999 11.45 4.41 10.1675 4.41H6.5V3.83249C6.5 2.54999 7.54999 1.5 8.83249 1.5H14.6675C15.95 1.5 17 2.54999 17 3.83249Z" stroke="#33414E" stroke-width="1.5" stroke-linecap="round" stroke-linejoin="round"/>
</svg>
