<svg width="18" height="18" viewBox="0 0 18 18" fill="none" xmlns="http://www.w3.org/2000/svg">
<path d="M2.62648 11.502C2.34311 11.502 2.06619 11.4794 1.79571 11.4344C1.52522 11.3957 1.27728 11.3378 1.05188 11.2605C0.832917 11.1768 0.642935 11.0737 0.481934 10.9514L0.810377 10.0626C0.984259 10.1721 1.17102 10.2623 1.37066 10.3331C1.5703 10.4039 1.77317 10.4555 1.97925 10.4877C2.19177 10.5199 2.39463 10.536 2.58784 10.536C2.94204 10.536 3.2093 10.4941 3.38962 10.4104C3.56995 10.3267 3.66011 10.1979 3.66011 10.024C3.66011 9.87586 3.60859 9.7696 3.50554 9.7052C3.4025 9.63436 3.23828 9.57962 3.01288 9.54098L1.95027 9.38642C1.48658 9.31558 1.14204 9.15779 0.916638 8.91307C0.691236 8.66835 0.578535 8.37211 0.578535 8.02434C0.578535 7.72166 0.662255 7.45762 0.829697 7.23221C0.997139 7.00037 1.24186 6.82005 1.56386 6.69125C1.89231 6.56245 2.29159 6.49805 2.76172 6.49805C3.00644 6.49805 3.24794 6.51737 3.48622 6.55601C3.72451 6.59465 3.94669 6.65583 4.15277 6.73955C4.36529 6.81683 4.53918 6.91665 4.67442 7.03901L4.31699 7.90842C4.18175 7.80538 4.02719 7.72166 3.85331 7.65726C3.67943 7.59286 3.4991 7.54456 3.31234 7.51236C3.12558 7.48016 2.94204 7.46406 2.76172 7.46406C2.42039 7.46406 2.16279 7.50914 1.98891 7.5993C1.81503 7.68302 1.72809 7.81182 1.72809 7.9857C1.72809 8.12094 1.77639 8.22398 1.87299 8.29482C1.96959 8.36567 2.12415 8.41719 2.33667 8.44939L3.36064 8.62327C3.85653 8.70699 4.22039 8.86155 4.45223 9.08695C4.69052 9.31236 4.80966 9.61504 4.80966 9.995C4.80966 10.3041 4.7195 10.5714 4.53918 10.7968C4.36529 11.0222 4.11413 11.1961 3.78569 11.3184C3.45724 11.4408 3.07084 11.502 2.62648 11.502Z" fill="#F24E1E"/>
<path d="M8.5918 11.502C7.99931 11.502 7.49377 11.4022 7.07517 11.2025C6.663 10.9964 6.34744 10.7066 6.12848 10.3331C5.91595 9.95958 5.80969 9.51522 5.80969 9.00001C5.80969 8.51701 5.90951 8.08874 6.10916 7.71522C6.31524 7.33526 6.60504 7.03901 6.97856 6.82649C7.35853 6.60753 7.80289 6.49805 8.31166 6.49805C8.78822 6.49805 9.20039 6.59787 9.54815 6.79751C9.89591 6.99715 10.1632 7.28051 10.3499 7.6476C10.5431 8.01468 10.6397 8.45905 10.6397 8.98069V9.3671H6.824V8.57497H9.70271L9.55781 8.74885C9.55781 8.29805 9.45155 7.96316 9.23903 7.7442C9.02651 7.52524 8.72704 7.41576 8.34064 7.41576C8.0766 7.41576 7.84475 7.4705 7.64511 7.57998C7.45191 7.68946 7.30057 7.85046 7.19109 8.06298C7.08161 8.27551 7.02686 8.53633 7.02686 8.84545V8.97103C7.02686 9.32524 7.08805 9.61504 7.21041 9.84044C7.33277 10.0594 7.51309 10.2236 7.75137 10.3331C7.98965 10.4426 8.2859 10.4973 8.6401 10.4973C8.8977 10.4973 9.15853 10.4651 9.42257 10.4007C9.68661 10.3299 9.92811 10.214 10.1471 10.053L10.5142 10.9417C10.2566 11.1349 9.95387 11.2766 9.60611 11.3667C9.26479 11.4569 8.92668 11.502 8.5918 11.502Z" fill="#F24E1E"/>
<path d="M11.6397 11.4585V6.64777H12.7893V7.8263H12.7989C12.9084 7.45921 13.0984 7.16619 13.3689 6.94723C13.6393 6.72827 13.9807 6.60268 14.3928 6.57048L14.9241 6.5415L15.0401 7.71038L14.1707 7.78766C13.7714 7.81986 13.4655 7.94866 13.2529 8.17406C13.0469 8.39946 12.9438 8.68283 12.9438 9.02415V11.4585H11.6397Z" fill="#F24E1E"/>
<path d="M16.04 6.75393V5.45947H17.518V6.75393H16.04ZM16.1463 12.5403V7.7296H17.4408V12.5403H16.1463Z" fill="#F24E1E"/>
</svg>
