<svg width="17" height="16" viewBox="0 0 17 16" fill="none" xmlns="http://www.w3.org/2000/svg">
<path d="M8.37886 7.70726C9.50388 7.70726 10.4779 7.3275 11.274 6.57823C12.0699 5.82909 12.4735 4.91247 12.4735 3.85351C12.4735 2.79492 12.07 1.87817 11.2739 1.12878C10.4778 0.37976 9.50375 0 8.37886 0C7.25372 0 6.2798 0.37976 5.48383 1.1289C4.68787 1.87805 4.28424 2.79479 4.28424 3.85351C4.28424 4.91247 4.68787 5.82921 5.48383 6.57836C6.28006 7.32738 7.2541 7.70726 8.37886 7.70726V7.70726ZM6.18836 1.79187C6.79912 1.21704 7.51558 0.93762 8.37886 0.93762C9.24201 0.93762 9.9586 1.21704 10.5695 1.79187C11.1802 2.36682 11.4773 3.04125 11.4773 3.85351C11.4773 4.66601 11.1802 5.34032 10.5695 5.91527C9.9586 6.49022 9.24201 6.76964 8.37886 6.76964C7.51584 6.76964 6.79938 6.4901 6.18836 5.91527C5.57748 5.34044 5.28046 4.66601 5.28046 3.85351C5.28046 3.04125 5.57748 2.36682 6.18836 1.79187Z" fill="#F24E1E"/>
<path d="M15.5433 12.3031C15.5204 11.9913 15.474 11.6512 15.4056 11.2921C15.3366 10.9303 15.2478 10.5883 15.1414 10.2756C15.0314 9.95251 14.8821 9.63342 14.6973 9.32763C14.5057 9.01025 14.2806 8.73388 14.0279 8.50647C13.7637 8.26855 13.4403 8.07727 13.0662 7.93774C12.6935 7.79895 12.2804 7.72864 11.8385 7.72864C11.6649 7.72864 11.4971 7.79565 11.173 7.99426C10.9735 8.1167 10.7402 8.2583 10.4797 8.41492C10.257 8.54846 9.95536 8.67358 9.58273 8.78686C9.21918 8.89758 8.85006 8.95373 8.4856 8.95373C8.12141 8.95373 7.75228 8.89758 7.38847 8.78686C7.01624 8.6737 6.71442 8.54858 6.49212 8.41504C6.23415 8.25989 6.00069 8.11829 5.79823 7.99414C5.47437 7.79553 5.30653 7.72852 5.133 7.72852C4.69098 7.72852 4.27802 7.79895 3.90539 7.93787C3.53159 8.07715 3.20799 8.26843 2.94353 8.50659C2.69088 8.73413 2.46572 9.01037 2.27428 9.32763C2.08972 9.63342 1.94031 9.95239 1.83032 10.2758C1.7241 10.5884 1.63525 10.9303 1.56625 11.2921C1.49777 11.6507 1.45147 11.991 1.42851 12.3035C1.40594 12.609 1.39453 12.927 1.39453 13.2483C1.39453 14.0835 1.67663 14.7596 2.23291 15.2583C2.78232 15.7504 3.50916 15.9999 4.39332 15.9999H12.5789C13.4628 15.9999 14.1897 15.7504 14.7392 15.2583C15.2956 14.76 15.5777 14.0836 15.5777 13.2482C15.5776 12.9258 15.566 12.6078 15.5433 12.3031V12.3031ZM14.0523 14.579C13.6893 14.9042 13.2073 15.0622 12.5788 15.0622H4.39332C3.76466 15.0622 3.2827 14.9042 2.9198 14.5791C2.56377 14.2601 2.39075 13.8247 2.39075 13.2483C2.39075 12.9485 2.40126 12.6525 2.42227 12.3683C2.44276 12.0895 2.48466 11.7832 2.54678 11.4578C2.60813 11.1363 2.68621 10.8347 2.77908 10.5616C2.86818 10.2998 2.98971 10.0405 3.14042 9.79077C3.28426 9.55273 3.44975 9.34851 3.63237 9.18396C3.80318 9.03003 4.01849 8.90405 4.27218 8.80957C4.50681 8.72217 4.77048 8.67431 5.05673 8.66711C5.09162 8.68457 5.15375 8.71789 5.25439 8.77966C5.45919 8.90527 5.69524 9.04858 5.9562 9.20544C6.25036 9.38195 6.62934 9.54138 7.08212 9.67895C7.54502 9.81982 8.01713 9.89135 8.48573 9.89135C8.95434 9.89135 9.42657 9.81982 9.88921 9.67907C10.3424 9.54126 10.7212 9.38195 11.0158 9.2052C11.2828 9.04455 11.5123 8.90539 11.7171 8.77966C11.8177 8.71802 11.8798 8.68457 11.9147 8.66711C12.2011 8.67431 12.4648 8.72217 12.6995 8.80957C12.9531 8.90405 13.1684 9.03015 13.3392 9.18396C13.5218 9.34839 13.6873 9.55261 13.8312 9.79089C13.982 10.0405 14.1037 10.2999 14.1926 10.5615C14.2856 10.835 14.3639 11.1365 14.4251 11.4576C14.4871 11.7837 14.5291 12.0901 14.5496 12.3684V12.3686C14.5707 12.6517 14.5814 12.9476 14.5815 13.2483C14.5814 13.8248 14.4083 14.2601 14.0523 14.579V14.579Z" fill="#F24E1E"/>
</svg>
