<svg width="18" height="18" viewBox="0 0 18 18" fill="none" xmlns="http://www.w3.org/2000/svg">
<path d="M11.25 9.71289H6C5.6925 9.71289 5.4375 9.45789 5.4375 9.15039C5.4375 8.84289 5.6925 8.58789 6 8.58789H11.25C11.5575 8.58789 11.8125 8.84289 11.8125 9.15039C11.8125 9.45789 11.5575 9.71289 11.25 9.71289Z" fill="#242E37"/>
<path d="M9.285 12.7129H6C5.6925 12.7129 5.4375 12.4579 5.4375 12.1504C5.4375 11.8429 5.6925 11.5879 6 11.5879H9.285C9.5925 11.5879 9.8475 11.8429 9.8475 12.1504C9.8475 12.4579 9.5925 12.7129 9.285 12.7129Z" fill="#242E37"/>
<path d="M10.5 5.0625H7.5C6.78 5.0625 5.4375 5.0625 5.4375 3C5.4375 0.9375 6.78 0.9375 7.5 0.9375H10.5C11.22 0.9375 12.5625 0.9375 12.5625 3C12.5625 3.72 12.5625 5.0625 10.5 5.0625ZM7.5 2.0625C6.7575 2.0625 6.5625 2.0625 6.5625 3C6.5625 3.9375 6.7575 3.9375 7.5 3.9375H10.5C11.4375 3.9375 11.4375 3.7425 11.4375 3C11.4375 2.0625 11.2425 2.0625 10.5 2.0625H7.5Z" fill="#242E37"/>
<path d="M11.25 17.0618H6.75C2.535 17.0618 1.6875 15.1268 1.6875 11.9993V7.49934C1.6875 4.07934 2.925 2.61684 5.97 2.45934C6.27 2.44434 6.5475 2.67684 6.5625 2.99184C6.5775 3.30684 6.3375 3.56184 6.03 3.57684C3.9 3.69684 2.8125 4.33434 2.8125 7.49934V11.9993C2.8125 14.7743 3.36 15.9368 6.75 15.9368H11.25C14.64 15.9368 15.1875 14.7743 15.1875 11.9993V7.49934C15.1875 4.33434 14.1 3.69684 11.97 3.57684C11.6625 3.56184 11.4225 3.29184 11.4375 2.98434C11.4525 2.67684 11.7225 2.43684 12.03 2.45184C15.075 2.61684 16.3125 4.07934 16.3125 7.49184V11.9918C16.3125 15.1268 15.465 17.0618 11.25 17.0618Z" fill="#242E37"/>
</svg>