<svg width="24" height="24" viewBox="0 0 24 24" fill="none" xmlns="http://www.w3.org/2000/svg">
<path d="M2.90967 6C3.08999 6.18044 3.32301 6.33192 3.43746 6.54713C3.57908 6.81531 3.47039 7.11743 3.2102 7.26725C2.8685 7.46343 2.8191 7.73575 2.82074 8.0925C2.83227 10.7677 2.83062 13.4429 2.82157 16.1182C2.82074 16.407 2.88908 16.6049 3.14186 16.7704C3.50662 17.0088 3.58155 17.3755 3.38064 17.6958C3.17233 18.0269 2.78781 18.0964 2.40823 17.8614C1.81786 17.4963 1.49592 16.9972 1.50004 16.2638C1.51733 13.4231 1.51157 10.5823 1.50416 7.74154C1.50169 6.96596 1.91996 6.49084 2.55232 6.15065C2.63384 6.10678 2.73264 6.09436 2.82321 6.06787C2.85203 6.04553 2.88085 6.02235 2.90967 6Z" fill="#33414E"/>
<path d="M5.50675 11.9797C5.50675 10.1765 5.51756 8.37335 5.50093 6.57016C5.49428 5.85844 5.83437 5.39033 6.47465 5.08781C6.84884 4.91107 7.22885 5.0074 7.41096 5.32027C7.58724 5.62279 7.50243 5.9906 7.15069 6.1737C6.8846 6.31302 6.83471 6.49055 6.83554 6.75008C6.84219 10.2506 6.84219 13.7503 6.83554 17.2507C6.83471 17.5111 6.88626 17.6878 7.15152 17.8271C7.50243 18.011 7.58724 18.3788 7.41013 18.6805C7.22719 18.9934 6.84718 19.0889 6.47299 18.9114C5.83271 18.6081 5.49344 18.14 5.5001 17.4283C5.51756 15.6123 5.50675 13.7964 5.50675 11.9797Z" fill="#33414E"/>
<path d="M22.4995 12.0061C22.4995 14.065 22.5011 16.1246 22.4987 18.1834C22.497 19.375 21.8173 19.9981 20.5146 19.9989C17.5113 20.0004 14.508 20.0004 11.5048 19.9989C10.1891 19.9981 9.50122 19.3645 9.50122 18.152C9.49959 14.0463 9.49959 9.94055 9.50122 5.83483C9.50203 4.64476 10.194 4.00217 11.4788 4.00142C14.4959 3.99917 17.5121 3.99992 20.5292 4.00142C21.823 4.00217 22.4978 4.62978 22.4987 5.82959C22.5011 7.88844 22.4995 9.94729 22.4995 12.0061ZM21.196 12.0046C21.196 9.95703 21.1968 7.91016 21.196 5.86255C21.196 5.29859 21.0961 5.20347 20.4976 5.20347C17.5073 5.20273 14.5162 5.20273 11.5259 5.20347C10.9265 5.20347 10.8063 5.31132 10.8063 5.85356C10.8055 9.94804 10.8055 14.0425 10.8063 18.137C10.8063 18.6867 10.9249 18.7968 11.5161 18.7968C14.5064 18.7976 17.4975 18.7976 20.4878 18.7968C21.0953 18.7968 21.196 18.704 21.1968 18.1467C21.1968 16.0991 21.196 14.0523 21.196 12.0046Z" fill="#33414E"/>
</svg>
