<svg width="24" height="24" viewBox="0 0 24 24" fill="none" xmlns="http://www.w3.org/2000/svg">
<path d="M11.9836 19.4985C10.1484 19.4985 8.31314 19.5009 6.4787 19.4978C3.9133 19.4931 2.00779 17.5962 2.00311 15.0387C1.9992 13.0083 1.99842 10.9779 2.00311 8.94825C2.00857 6.41337 3.91564 4.50635 6.45215 4.50323C10.1484 4.49854 13.8446 4.49932 17.5408 4.50323C20.0804 4.50635 21.989 6.40868 21.9961 8.942C22.0015 10.9849 22.0015 13.0286 21.9961 15.0715C21.989 17.5806 20.0781 19.49 17.5673 19.4978C15.7056 19.5032 13.8446 19.4985 11.9836 19.4985ZM12 18.2467C13.8336 18.2467 15.6681 18.2491 17.5017 18.2459C19.4057 18.2436 20.7411 16.9082 20.7434 15.0035C20.7466 13.0005 20.7466 10.9974 20.7434 8.99433C20.7411 7.09043 19.4049 5.75583 17.5002 5.75427C13.8321 5.75193 10.164 5.75193 6.49588 5.75427C4.59194 5.75583 3.2573 7.09199 3.25496 8.99667C3.25262 10.9997 3.25262 13.0028 3.25496 15.0059C3.2573 16.909 4.5935 18.2436 6.49822 18.2459C8.33266 18.2483 10.1663 18.2467 12 18.2467Z" fill="#33414E"/>
<path d="M8.87473 11.9985C8.87473 11.2059 8.87005 10.4133 8.8763 9.62063C8.88098 8.99277 9.28863 8.72413 9.86497 8.97871C11.669 9.77447 13.469 10.5796 15.2722 11.3785C15.5417 11.498 15.7377 11.6706 15.7455 11.9829C15.7533 12.3148 15.5534 12.4976 15.2691 12.6241C13.4659 13.423 11.6666 14.2281 9.86185 15.0238C9.28707 15.2776 8.88098 15.0059 8.8763 14.3765C8.87083 13.5838 8.87473 12.7912 8.87473 11.9985ZM13.5823 12.0001C12.3781 11.4652 11.2754 10.9763 10.1438 10.4742C10.1438 11.523 10.1438 12.4937 10.1438 13.5268C11.2793 13.0223 12.3781 12.535 13.5823 12.0001Z" fill="#33414E"/>
</svg>
