<svg width="24" height="24" viewBox="0 0 24 24" fill="none" xmlns="http://www.w3.org/2000/svg">
<path d="M2.0016 12.0055C2.0016 9.48778 1.99897 6.97061 2.00265 4.4529C2.00423 3.29882 2.71717 2.35956 3.79867 2.08683C4.01719 2.03155 4.24886 2.0047 4.47475 2.0047C9.47528 1.99996 14.4758 1.99943 19.4758 2.00206C20.9843 2.00312 21.9979 3.02189 21.9984 4.53346C22.0005 9.51569 22 14.4984 21.9984 19.4807C21.9979 20.9717 20.9775 21.9973 19.4858 21.9979C14.4942 22.0005 9.50266 22.0005 4.51108 21.9979C3.03256 21.9968 2.00687 20.9796 2.00318 19.5049C1.99739 17.0056 2.0016 14.5053 2.0016 12.0055ZM8.10417 18.0576C8.12049 18.0844 8.13682 18.1107 8.15261 18.1376C8.59648 17.9612 9.0472 17.799 9.48265 17.6048C10.2735 17.2515 11.0559 17.1888 11.8768 17.5247C12.6835 17.8549 13.5338 18.0297 14.4021 18.1197C16.6688 18.3545 18.7992 17.9349 20.7916 16.8208C20.9822 16.7145 21.0538 16.596 21.0533 16.3701C21.0449 12.4483 21.0475 8.5264 21.0475 4.60401C21.0475 3.50995 20.4904 2.95397 19.3947 2.95397C16.1655 2.95397 12.9362 2.97082 9.70748 2.9387C9.10196 2.93291 8.67546 3.10244 8.26529 3.53575C6.89208 4.98572 6.01856 6.66629 5.85059 8.6675C5.6384 11.1957 6.48875 13.357 8.23265 15.1734C8.5433 15.4967 8.68178 15.8489 8.67441 16.2817C8.66283 16.9298 8.48538 17.5247 8.10417 18.0576ZM7.42599 2.95344C7.35912 2.95344 7.28277 2.95344 7.20695 2.95344C6.32079 2.95344 5.43463 2.95344 4.54846 2.95397C3.52698 2.95502 2.95305 3.52996 2.95253 4.55452C2.952 9.51148 2.952 14.469 2.952 19.4259C2.952 20.4805 3.52224 21.0459 4.58163 21.0459C9.47791 21.0454 14.3742 21.0454 19.2699 21.0444C19.4453 21.0444 19.6222 21.0491 19.7954 21.027C20.451 20.9433 20.9717 20.4647 21.0191 19.8103C21.067 19.15 21.0296 18.484 21.0296 17.8206C21.0075 17.818 20.988 17.8091 20.9749 17.8148C20.9106 17.8422 20.8474 17.8722 20.7848 17.9038C19.3568 18.6262 17.8435 19.0253 16.2455 19.1158C14.5569 19.2111 12.9236 18.9605 11.3482 18.3487C10.9206 18.1829 10.512 18.1902 10.0987 18.3735C9.77014 18.5188 9.44263 18.6683 9.11038 18.8052C8.33585 19.1242 7.53498 19.2058 6.71201 19.0511C6.49507 19.0105 6.34132 18.8905 6.30499 18.6609C6.26971 18.4382 6.34132 18.2434 6.55299 18.1597C7.31015 17.8617 7.59712 17.2483 7.70663 16.5044C7.74981 16.2101 7.68505 15.9747 7.4639 15.7462C4.58479 12.77 4.0393 8.40425 6.11597 4.82356C6.49191 4.17597 6.9758 3.59103 7.42599 2.95344Z" fill="#33414E"/>
<path d="M10.1819 8.67265C9.67431 8.67265 9.2278 8.67475 8.78183 8.67212C8.40325 8.67002 8.19158 8.49364 8.19263 8.1888C8.19368 7.89607 8.40114 7.72443 8.76603 7.72338C9.49371 7.72127 10.2209 7.72601 10.9485 7.72074C11.1649 7.71916 11.3503 7.76392 11.463 7.96451C11.5767 8.16668 11.5124 8.34885 11.3987 8.53049C10.8306 9.43501 10.2656 10.3422 9.70011 11.2488C9.6543 11.3225 9.61007 11.3967 9.53267 11.5241C9.80226 11.5241 10.0308 11.5241 10.2593 11.5241C10.522 11.5241 10.7853 11.5178 11.048 11.5273C11.3397 11.5378 11.5335 11.7416 11.5277 12.0106C11.5219 12.2676 11.3297 12.4687 11.0523 12.4713C10.2635 12.4792 9.47475 12.4818 8.686 12.4713C8.26161 12.4655 8.06784 12.0775 8.29794 11.7032C8.78446 10.9124 9.28098 10.1279 9.77224 9.34024C9.89967 9.13438 10.0255 8.92695 10.1819 8.67265Z" fill="#33414E"/>
<path d="M13.9677 12.2832C13.0425 12.6465 12.2454 12.4259 11.7736 11.6798C11.4024 11.0928 11.454 10.3078 11.8989 9.76389C12.3502 9.21212 13.0947 9.00152 13.7471 9.2574C13.9003 9.31742 14.0019 9.31479 14.1456 9.21686C14.4352 9.01995 14.8338 9.21896 14.8412 9.57066C14.8591 10.3941 14.8586 11.2186 14.8428 12.042C14.8359 12.4058 14.4395 12.5943 14.1293 12.4058C14.0709 12.3695 14.0193 12.3221 13.9677 12.2832ZM13.1879 10.1024C12.7861 10.104 12.4734 10.4199 12.477 10.82C12.4807 11.2028 12.7951 11.5182 13.1794 11.524C13.577 11.5298 13.8982 11.2133 13.8982 10.8148C13.8992 10.4067 13.5938 10.1008 13.1879 10.1024Z" fill="#33414E"/>
<path d="M18.438 9.15284C19.3494 9.15547 20.0882 9.89572 20.0903 10.8087C20.0918 11.7248 19.3347 12.4766 18.4138 12.4729C17.5065 12.4692 16.7662 11.7232 16.7647 10.8113C16.7625 9.88783 17.5071 9.15021 18.438 9.15284ZM18.4422 10.1021C18.0357 10.0947 17.7256 10.3948 17.7214 10.8008C17.7172 11.2056 18.0241 11.5221 18.4232 11.5237C18.8113 11.5252 19.1241 11.222 19.1362 10.8339C19.1483 10.4333 18.8413 10.1095 18.4422 10.1021Z" fill="#33414E"/>
<path d="M16.2808 9.87429C16.2808 10.5487 16.2829 11.2232 16.2803 11.8976C16.2787 12.2677 16.1139 12.4704 15.819 12.4773C15.5162 12.4841 15.3299 12.2672 15.3293 11.8934C15.3277 10.5271 15.3277 9.16036 15.3304 7.7941C15.3309 7.48452 15.4736 7.2913 15.7195 7.25076C15.9554 7.2118 16.1397 7.29814 16.2339 7.51716C16.2766 7.61667 16.2787 7.73882 16.2792 7.85096C16.2824 8.5254 16.2808 9.19984 16.2808 9.87429Z" fill="#33414E"/>
</svg>
