<svg width="8" height="12" viewBox="0 0 8 12" fill="none" xmlns="http://www.w3.org/2000/svg">
    <path fill-rule="evenodd" clip-rule="evenodd" d="M2.0575 11.7345C1.89872 11.8706 1.70429 11.9583 1.49721 11.9874C1.29014 12.0165 1.07907 11.9857 0.888957 11.8986C0.698847 11.8115 0.537648 11.6718 0.424419 11.496C0.311189 11.3202 0.250665 11.1156 0.25 10.9065L0.25 1.09353C0.250665 0.884421 0.311189 0.679876 0.424419 0.504078C0.537648 0.328279 0.698847 0.188579 0.888957 0.101491C1.07907 0.0144033 1.29014 -0.0164289 1.49721 0.01264C1.70429 0.0417089 1.89872 0.129463 2.0575 0.265528L7.321 4.80003C7.48425 4.94078 7.61525 5.11507 7.70507 5.31102C7.79489 5.50697 7.84142 5.71997 7.8415 5.93553V6.06153C7.84142 6.27708 7.79489 6.49009 7.70507 6.68603C7.61525 6.88198 7.48425 7.05627 7.321 7.19703L2.0575 11.7345Z" fill="#5C6771"/>
</svg>
