<svg width="24" height="24" viewBox="0 0 24 24" fill="none" xmlns="http://www.w3.org/2000/svg">
    <path d="M10.756 6.17L17.826 13.241L10.653 20.415C10.321 20.747 9.88272 20.9516 9.415 20.993L9.239 21H4.006C3.75718 21 3.51711 20.9082 3.33183 20.7421C3.14655 20.576 3.0291 20.3473 3.002 20.1L2.996 19.99V14.757C2.99612 14.2875 3.16144 13.8329 3.463 13.473L3.583 13.343L10.756 6.17ZM13.896 3.03C14.2499 2.67605 14.7237 2.46767 15.2237 2.44601C15.7238 2.42435 16.2138 2.59098 16.597 2.913L16.724 3.03L20.967 7.273C21.3207 7.62686 21.5289 8.10042 21.5505 8.60025C21.5722 9.10008 21.4057 9.58988 21.084 9.973L20.967 10.101L19.241 11.827L12.171 4.756L13.896 3.03Z" fill="#F26522"/>
</svg>
