<svg width="20" height="22" viewBox="0 0 20 22" fill="none" xmlns="http://www.w3.org/2000/svg">
    <path d="M12 2H6V0H12V2ZM10 18C10 19.03 10.26 20 10.71 20.83C10.16 20.94 9.59 21 9 21C6.61305 21 4.32387 20.0518 2.63604 18.364C0.948212 16.6761 0 14.3869 0 12C0 9.61305 0.948212 7.32387 2.63604 5.63604C4.32387 3.94821 6.61305 3 9 3C11.12 3 13.07 3.74 14.62 5L16.04 3.56C16.55 4 17 4.46 17.45 4.97L16.03 6.39C17.3061 7.98126 18.001 9.96028 18 12V12.35C17.36 12.13 16.7 12 16 12C12.69 12 10 14.69 10 18ZM10 6H8V13H10V6ZM17 17V14H15V17H12V19H15V22H17V19H20V17H17Z" fill="#F24E1E"/>
</svg>
