<svg width="32" height="32" viewBox="0 0 32 32" fill="none" xmlns="http://www.w3.org/2000/svg">
    <path d="M16 31C24.2843 31 31 24.2843 31 16C31 7.71573 24.2843 1 16 1C7.71573 1 1 7.71573 1 16C1 24.2843 7.71573 31 16 31Z" fill="#98C0D0"/>
    <path d="M15.9998 28.0348C22.6466 28.0348 28.0348 22.6466 28.0348 15.9998C28.0348 9.3531 22.6466 3.96484 15.9998 3.96484C9.3531 3.96484 3.96484 9.3531 3.96484 15.9998C3.96484 22.6466 9.3531 28.0348 15.9998 28.0348Z" fill="#FCEBCD"/>
    <path d="M12.5749 3.76524C10.9699 4.23024 8.72236 4.94274 6.31736 7.81524C3.94236 10.6577 3.45236 13.9602 3.29986 16.2377C3.29986 16.2377 1.92736 17.9552 1.86236 17.6352C1.34486 15.1477 2.38986 9.58774 5.12236 6.64774C8.30236 3.22774 12.4374 2.01524 13.9324 1.78774C14.1899 1.74774 13.0624 3.62524 12.5749 3.76524Z" fill="#C2E3F0"/>
    <path d="M16 27.3975C22.2947 27.3975 27.3975 22.2947 27.3975 16C27.3975 9.70537 22.2947 4.60254 16 4.60254C9.70537 4.60254 4.60254 9.70537 4.60254 16C4.60254 22.2947 9.70537 27.3975 16 27.3975Z" fill="white"/>
    <path d="M16 8.75V16" stroke="#563428" stroke-miterlimit="10" stroke-linecap="round"/>
    <path d="M15.9999 17.2649C16.6985 17.2649 17.2649 16.6985 17.2649 15.9999C17.2649 15.3012 16.6985 14.7349 15.9999 14.7349C15.3012 14.7349 14.7349 15.3012 14.7349 15.9999C14.7349 16.6985 15.3012 17.2649 15.9999 17.2649Z" fill="#563428"/>
    <path d="M10.6924 16.0375L15.9999 16" stroke="#563428" stroke-miterlimit="10" stroke-linecap="round"/>
    <path d="M16 25V26.25M16 5.75V7M7 16H5.75M26.25 16H25" stroke="#6596A3" stroke-width="2" stroke-miterlimit="10"/>
    <path d="M11.5001 23.7951L10.8751 24.8776M21.1251 7.12256L20.5001 8.20506M20.5001 23.7951L21.1251 24.8776M10.8751 7.12256L11.5001 8.20506M23.7951 20.5001L24.8776 21.1251M7.12256 10.8751L8.20506 11.5001M8.20506 20.5001L7.12256 21.1251M24.8776 10.8751L23.7951 11.5001" stroke="#B0BEC5" stroke-width="3" stroke-miterlimit="10"/>
</svg>
